<svg width="189" height="63" xmlns="http://www.w3.org/2000/svg" xmlns:xlink="http://www.w3.org/1999/xlink" overflow="hidden"><defs><clipPath id="clip0"><rect x="997" y="21" width="189" height="63"/></clipPath></defs><g clip-path="url(#clip0)" transform="translate(-997 -21)"><path d="M8.73214 41.9074C8.06359 42.193 7.94064 42.2468 7.8036 42.3159 7.65887 42.3902 7.6038 42.4542 7.63326 42.6118 7.63966 42.6489 7.66656 42.7283 7.69345 42.7898 7.71523 42.8385 7.71779 42.8692 7.68577 42.8807 7.65631 42.8948 7.63326 42.8679 7.60636 42.8013 7.50646 42.5682 7.40016 42.2877 7.34381 42.1533 7.29898 42.0482 7.16707 41.7754 7.09919 41.6179 7.07229 41.5513 7.06845 41.5167 7.09791 41.5039 7.12864 41.4898 7.14914 41.5129 7.16963 41.5577 7.19012 41.6051 7.20421 41.6307 7.23751 41.6794 7.31051 41.7895 7.40016 41.7921 7.55769 41.7345 7.70242 41.6832 7.82537 41.6307 8.49392 41.3438L9.10996 41.08C9.74905 40.8046 9.96294 40.5626 10.0436 40.2718 10.123 40.0029 10.0539 39.7941 9.98855 39.6443 9.90787 39.4509 9.74393 39.2408 9.49034 39.1384 9.14454 39.0001 8.74239 39.1563 8.289 39.351L7.737 39.5866C7.06973 39.8748 6.94422 39.9273 6.80718 39.9952 6.66117 40.0695 6.6061 40.1322 6.63812 40.2898 6.64452 40.3295 6.67014 40.4063 6.69191 40.455 6.7124 40.5024 6.71496 40.5344 6.68422 40.5459 6.65349 40.56 6.63171 40.5318 6.60482 40.4691 6.51004 40.2475 6.40502 39.9645 6.40374 39.9606 6.38069 39.9068 6.24877 39.6353 6.17577 39.465 6.14887 39.4035 6.14503 39.3689 6.17577 39.3561 6.20651 39.3407 6.227 39.3651 6.24877 39.4176 6.27054 39.4663 6.28591 39.4919 6.31793 39.5405 6.39093 39.6494 6.48059 39.6532 6.63812 39.5956 6.78156 39.5444 6.90579 39.4906 7.57306 39.2037L8.04438 39.0026C8.53362 38.7926 9.07282 38.6184 9.54926 38.8528 9.95141 39.05 10.1358 39.3484 10.2588 39.6315 10.3587 39.8658 10.5278 40.2936 10.3753 40.7393 10.269 41.0493 10.0155 41.3554 9.37636 41.6294L8.73214 41.9074ZM8.55027 37.0123C8.91273 36.924 9.02159 36.8343 9.0344 36.7344 9.04464 36.6499 9.02927 36.5577 9.01262 36.4847 9.0011 36.4334 9.00366 36.404 9.0344 36.3976 9.07026 36.3899 9.08947 36.4296 9.10484 36.4949 9.17144 36.7985 9.19833 36.9893 9.21754 37.0777 9.22651 37.1199 9.28927 37.3364 9.34306 37.581 9.35715 37.6425 9.36227 37.6847 9.31872 37.695 9.29055 37.7014 9.27518 37.6732 9.26493 37.6271 9.25212 37.5656 9.22907 37.4849 9.19577 37.4222 9.13045 37.3082 8.99213 37.321 8.58229 37.403L5.80435 37.9691C5.71086 37.9896 5.6417 37.9896 5.63145 37.9422 5.61992 37.8909 5.67115 37.8359 5.73775 37.7372 5.78642 37.6681 6.39221 36.7908 6.92116 35.957 7.16963 35.5689 7.70498 34.7902 7.76261 34.6942L7.75749 34.6711 5.66603 35.1783C5.3817 35.2462 5.30358 35.3089 5.28052 35.4293 5.26772 35.5075 5.29205 35.6163 5.30742 35.6829 5.32023 35.7393 5.30998 35.7611 5.28052 35.7649 5.24466 35.7751 5.22673 35.7239 5.21136 35.6522 5.15885 35.414 5.12299 35.1873 5.1025 35.0887 5.09097 35.0361 5.03846 34.8607 4.98723 34.6327 4.97315 34.5712 4.96674 34.5238 5.00644 34.5162 5.03462 34.5098 5.05511 34.5354 5.06664 34.5917 5.07689 34.6378 5.08585 34.675 5.11147 34.7275 5.17678 34.8517 5.28437 34.8658 5.54692 34.8133L8.50929 34.2152C8.61175 34.1921 8.65658 34.2024 8.6681 34.2434 8.67963 34.2959 8.64121 34.3638 8.59894 34.4265 8.38378 34.7813 7.90222 35.5177 7.52696 36.1068 7.13249 36.7267 6.66245 37.3748 6.59329 37.4785L6.59585 37.4926 8.55027 37.0123ZM6.23852 32.7308C5.51362 32.7756 5.37786 32.7846 5.22545 32.8051 5.06408 32.8256 4.98467 32.8781 4.96802 32.9844 4.9565 33.0382 4.9565 33.0997 4.96034 33.1586 4.9629 33.2047 4.95521 33.2354 4.91679 33.238 4.8899 33.2405 4.87709 33.2034 4.87197 33.1265 4.85916 32.9447 4.85404 32.6424 4.84507 32.5041 4.83739 32.385 4.80537 32.1045 4.79384 31.9214 4.79 31.8599 4.79768 31.8202 4.82586 31.8176 4.863 31.8151 4.87581 31.8445 4.87837 31.8932 4.88093 31.9406 4.88862 31.9777 4.90142 32.0354 4.93344 32.1634 5.01669 32.1967 5.18575 32.1929 5.33944 32.1929 5.47392 32.1852 6.2001 32.1391L7.04155 32.0853C7.50518 32.0584 7.88301 32.0328 8.08664 32.0021 8.21472 31.9777 8.29925 31.9406 8.30821 31.7959 8.31334 31.728 8.3159 31.623 8.31205 31.5512 8.30949 31.4974 8.32102 31.4731 8.34535 31.4718 8.37737 31.4705 8.3953 31.5077 8.39915 31.5602 8.41964 31.8753 8.42476 32.175 8.43116 32.3069 8.43757 32.417 8.47087 32.7154 8.48368 32.9088 8.48752 32.9703 8.47599 33.0049 8.44141 33.0062 8.41708 33.0087 8.40299 32.9882 8.39915 32.9306 8.3953 32.8589 8.37994 32.8025 8.36969 32.7603 8.34407 32.6655 8.26211 32.6411 8.1225 32.636 7.92143 32.6245 7.54361 32.6488 7.07998 32.677L6.23852 32.7308ZM5.21393 30.5804C4.94497 30.6739 4.88605 30.752 4.82714 30.9224 4.80152 30.9928 4.79896 31.0684 4.7964 31.1081 4.79384 31.1516 4.77847 31.1644 4.74901 31.1632 4.71187 31.1606 4.70931 31.1081 4.71571 31.0364 4.73236 30.7828 4.76438 30.5113 4.77335 30.3435 4.78103 30.2244 4.78103 29.9938 4.79768 29.7543 4.80152 29.6967 4.81433 29.6455 4.84763 29.6468 4.88093 29.6493 4.88862 29.6775 4.88605 29.7223 4.88221 29.8004 4.88221 29.8709 4.90783 29.9106 4.93088 29.9439 4.96162 29.9631 5.00516 29.9644 5.06792 29.9682 5.20368 29.9336 5.38042 29.8786L7.6038 29.1947 7.60508 29.1754C7.09278 28.9347 5.59303 28.2162 5.28437 28.0817 5.22417 28.0548 5.15373 28.0292 5.11019 28.0279 5.07176 28.0253 5.03206 28.0433 5.01541 28.0842 4.99236 28.1419 4.98467 28.2136 4.98083 28.2738 4.97699 28.3173 4.9693 28.3545 4.93728 28.3532 4.89886 28.3506 4.89246 28.3071 4.89758 28.2174 4.91295 27.9767 4.93985 27.7781 4.94369 27.7167 4.94881 27.636 4.94881 27.4093 4.95778 27.2646 4.96162 27.2031 4.97443 27.1647 5.00773 27.1672 5.04102 27.1685 5.04871 27.198 5.04487 27.2466 5.03974 27.294 5.03334 27.3939 5.08457 27.4849 5.12299 27.5489 5.19984 27.627 5.49825 27.7756 5.93627 27.9907 6.18601 28.1355 6.75723 28.4326 7.43602 28.7835 7.9432 29.0422 8.17373 29.1614 8.44269 29.3022 8.51954 29.3368 8.51441 29.4021 8.51057 29.4636 8.44013 29.4879 8.21216 29.5648L5.21393 30.5804ZM6.56768 26.3411C5.85558 26.1875 5.72622 26.158 5.57382 26.1362 5.41244 26.1119 5.32919 26.1337 5.26388 26.281 5.24594 26.3143 5.22417 26.3949 5.21008 26.4603 5.19856 26.5128 5.18319 26.5397 5.15117 26.5307 5.11787 26.523 5.11659 26.4897 5.1294 26.4193 5.15629 26.2925 5.18959 26.158 5.21521 26.0415 5.24594 25.9198 5.27284 25.8135 5.28821 25.7482 5.32023 25.5983 5.52259 24.6646 5.53539 24.575 5.54436 24.4841 5.55204 24.4072 5.55076 24.3675 5.55076 24.3419 5.54308 24.3124 5.5482 24.2881 5.55332 24.2651 5.57382 24.2638 5.59687 24.2689 5.62889 24.2753 5.68012 24.3112 5.89272 24.3714 5.93883 24.3867 6.14119 24.4405 6.19498 24.461 6.21931 24.4713 6.24365 24.4866 6.23596 24.5186 6.22956 24.5494 6.20522 24.5545 6.16168 24.5455 6.13094 24.5391 6.05025 24.5263 5.98878 24.5391 5.89913 24.5532 5.83253 24.5891 5.75184 24.8158 5.72494 24.8952 5.61096 25.3831 5.59047 25.4792 5.58534 25.5035 5.59687 25.5138 5.63017 25.5202L6.81486 25.7751C6.84688 25.7815 6.86737 25.7815 6.87249 25.7533 6.89555 25.6495 7.01082 25.1116 7.0249 25.0015 7.03899 24.8875 7.04027 24.8145 7.00185 24.7607 6.97239 24.7197 6.95318 24.6954 6.9583 24.6736 6.96215 24.6531 6.97495 24.6429 7.00185 24.6467 7.03003 24.6531 7.10175 24.6877 7.33741 24.7581 7.42962 24.7838 7.61405 24.8375 7.64735 24.844 7.68449 24.8529 7.73572 24.8644 7.72675 24.9067 7.72035 24.94 7.69986 24.9451 7.67552 24.94 7.62814 24.9336 7.56794 24.9208 7.50262 24.9221 7.40401 24.9246 7.31819 24.9759 7.26184 25.1449 7.23495 25.232 7.12864 25.6957 7.10431 25.8084 7.09919 25.8314 7.1184 25.8391 7.14529 25.8468L7.51543 25.9262C7.67552 25.9608 8.10457 26.0594 8.24161 26.0824 8.56692 26.1426 8.65145 26.0824 8.75519 25.6047 8.78209 25.483 8.82435 25.2858 8.79362 25.1526 8.76544 25.0194 8.67707 24.9413 8.49264 24.8657 8.44525 24.8465 8.4286 24.8337 8.43629 24.8004 8.44653 24.7633 8.4824 24.7709 8.5285 24.7812 8.63608 24.8042 8.94731 24.9106 9.03568 24.9541 9.14966 25.013 9.14198 25.0553 9.10228 25.2333 9.02543 25.5842 8.96268 25.8404 8.91529 26.0402 8.86278 26.24 8.8282 26.386 8.79618 26.5243 8.78465 26.5755 8.76288 26.6793 8.74367 26.792 8.71933 26.8996 8.70396 27.0238 8.68347 27.1173 8.67066 27.18 8.65017 27.2082 8.61687 27.2005 8.59254 27.1954 8.58357 27.1736 8.59382 27.1173 8.61047 27.0468 8.61303 26.9892 8.61303 26.9444 8.61431 26.847 8.51698 26.8009 8.38378 26.7548 8.19295 26.6882 7.82281 26.6101 7.39248 26.5153L6.56768 26.3411ZM7.45652 22.8934C6.77772 22.6308 6.65221 22.5822 6.50492 22.5373 6.34995 22.4874 6.26414 22.4963 6.17577 22.6295 6.15271 22.6616 6.11941 22.7358 6.09508 22.7986 6.07587 22.8473 6.05794 22.8729 6.02592 22.8601 5.99646 22.8473 5.99902 22.8127 6.02336 22.7448 6.11557 22.5079 6.23724 22.2338 6.2731 22.1377 6.33202 21.9866 6.44985 21.6408 6.50364 21.5025 6.6125 21.2207 6.75467 20.9313 7.01338 20.7545 7.14657 20.6623 7.44371 20.5714 7.74212 20.6879 8.07384 20.816 8.32358 21.0709 8.51569 21.6651 9.17016 21.4602 9.68758 21.3065 10.0654 21.1516 10.4214 21.0017 10.5226 20.8301 10.5636 20.7673 10.5905 20.7225 10.6123 20.6841 10.6251 20.6469 10.6392 20.6111 10.6584 20.5983 10.6814 20.6072 10.7173 20.6226 10.7135 20.6559 10.6942 20.7097L10.5303 21.1349C10.4343 21.3847 10.3689 21.4884 10.2614 21.5819 10.0833 21.733 9.80797 21.8227 9.36739 21.9392 9.05233 22.0225 8.66938 22.1121 8.57973 22.1429 8.54515 22.1544 8.52978 22.18 8.51826 22.2107L8.35816 22.5975C8.3492 22.6206 8.35304 22.6359 8.37994 22.6475L8.44269 22.6718C8.85893 22.8319 9.21242 22.9689 9.40838 23.0189 9.54157 23.0535 9.65044 23.065 9.72088 22.9382 9.75546 22.8742 9.80285 22.7794 9.82334 22.7256 9.83871 22.6897 9.85792 22.6769 9.87969 22.6859 9.91043 22.7 9.91171 22.7346 9.89122 22.7922 9.79004 23.0509 9.65044 23.3775 9.62354 23.4454 9.59152 23.5286 9.49419 23.8155 9.42631 23.9961 9.40197 24.0512 9.37636 24.0781 9.34562 24.0653 9.32257 24.0563 9.31872 24.0358 9.33793 23.982 9.36483 23.9128 9.37508 23.8565 9.38276 23.813 9.39941 23.7182 9.30976 23.6554 9.18681 23.5875 9.0075 23.4928 8.6553 23.3557 8.24546 23.1969L7.45652 22.8934ZM8.01364 22.5027C8.06231 22.522 8.08536 22.5194 8.1097 22.4938 8.17758 22.4131 8.2429 22.2837 8.28644 22.1723 8.3556 21.9917 8.36072 21.929 8.33255 21.8252 8.28772 21.6536 8.13147 21.4436 7.76518 21.3027 7.13121 21.0581 6.78412 21.4064 6.68166 21.6703 6.6394 21.7817 6.61122 21.8636 6.60738 21.9136 6.60482 21.9482 6.61891 21.9648 6.65477 21.9776L8.01364 22.5027ZM10.8338 20.5099C10.766 20.5586 10.7391 20.5611 10.6469 20.5086 10.4163 20.3767 10.1768 20.2179 10.1128 20.1769 10.0526 20.1385 10.0142 20.0988 10.0334 20.0655 10.0564 20.0296 10.0949 20.045 10.1282 20.0642 10.1819 20.0949 10.2793 20.1282 10.3625 20.1462 10.7224 20.2281 10.976 20.0476 11.1233 19.7901 11.3359 19.4149 11.1861 19.087 10.9658 18.9628 10.7583 18.8475 10.5316 18.8014 10.0641 18.9935L9.80541 19.0998C9.18681 19.3547 8.80514 19.347 8.46831 19.1561 8.01108 18.8949 7.89837 18.3275 8.22753 17.746 8.38122 17.4745 8.5221 17.3234 8.61431 17.2325 8.64249 17.2017 8.6681 17.1864 8.69628 17.2043 8.75007 17.2337 8.8615 17.3208 9.18681 17.5027 9.27902 17.5552 9.30592 17.586 9.28671 17.6193 9.27005 17.6487 9.23804 17.6461 9.18809 17.6193 9.15223 17.5975 9.01006 17.545 8.85125 17.5706 8.73726 17.5898 8.54259 17.6397 8.3889 17.91 8.21344 18.2174 8.28644 18.5068 8.53619 18.6477 8.7283 18.7566 8.92938 18.7425 9.3866 18.5465L9.54029 18.4799C10.2076 18.1892 10.5943 18.1751 10.9914 18.4005 11.2322 18.5375 11.4678 18.7924 11.4947 19.2035 11.5101 19.4879 11.4153 19.7427 11.2898 19.963 11.1502 20.2051 11.0144 20.3754 10.8338 20.5099ZM10.7237 16.5537C10.1358 16.1246 10.027 16.0465 9.89762 15.962 9.76058 15.8762 9.66453 15.8659 9.58512 15.9351 9.54157 15.9684 9.50187 16.0158 9.46857 16.0631 9.44039 16.1016 9.41478 16.1195 9.38404 16.0964 9.36099 16.0798 9.37636 16.0427 9.42118 15.9812 9.52877 15.8339 9.71704 15.5982 9.80028 15.4855 9.87073 15.3895 10.0257 15.1525 10.1333 15.0052 10.1704 14.9553 10.1999 14.9297 10.2229 14.9463 10.2524 14.9707 10.2447 14.9988 10.2165 15.0373 10.1884 15.0757 10.1691 15.1103 10.1422 15.1615 10.0859 15.2819 10.1282 15.3587 10.2601 15.465 10.3779 15.5637 10.4868 15.6431 11.0746 16.0721L11.756 16.5703C12.1312 16.8444 12.4361 17.0672 12.6154 17.1736 12.7281 17.2376 12.8164 17.2619 12.9163 17.1569 12.9637 17.1082 13.0355 17.0275 13.0764 16.9699 13.1072 16.9276 13.1328 16.9161 13.1546 16.9302 13.1815 16.952 13.1699 16.9904 13.1379 17.0327 12.9509 17.2875 12.7614 17.5245 12.6845 17.6295 12.6192 17.7166 12.454 17.9715 12.34 18.1251 12.3029 18.1764 12.2708 18.1943 12.2452 18.1751 12.2247 18.161 12.2235 18.1367 12.2593 18.0906 12.3016 18.0329 12.3272 17.9804 12.3451 17.9394 12.3848 17.8523 12.3362 17.7793 12.2337 17.6871 12.0851 17.5488 11.7803 17.326 11.4038 17.0519L10.7237 16.5537ZM11.9046 13.3275 11.4281 13.859C11.2437 14.0677 11.1848 14.1676 11.2104 14.2919 11.2309 14.3751 11.2552 14.4328 11.277 14.4661 11.2988 14.4993 11.3026 14.5224 11.2821 14.5455 11.2578 14.5698 11.2347 14.5608 11.1976 14.5224 11.1412 14.4699 10.8876 14.1049 10.8659 14.0703 10.83 14.0165 10.8198 13.9871 10.839 13.9666 10.8659 13.9384 10.9325 13.9371 11.0234 13.8564 11.1297 13.7655 11.2616 13.64 11.3705 13.5247L12.6743 12.1466C12.7806 12.0352 12.8421 11.9494 12.8843 11.8905 12.9215 11.8277 12.942 11.7931 12.956 11.7803 12.9791 11.756 13.0034 11.7726 13.0559 11.8213 13.1289 11.8905 13.3595 12.1261 13.4504 12.2132 13.4812 12.2491 13.4965 12.276 13.4773 12.2965 13.4504 12.3234 13.4274 12.3144 13.371 12.2696L13.33 12.2388C13.2327 12.1594 13.047 12.1607 12.746 12.4655L12.3208 12.8946 13.7488 14.2432C14.069 14.5455 14.3444 14.8054 14.5109 14.9297 14.6172 15.0091 14.7145 15.0629 14.8272 14.9707 14.881 14.9284 14.9604 14.8592 15.0091 14.8067 15.0449 14.7683 15.0731 14.7606 15.0885 14.7773 15.1141 14.8016 15.0975 14.8375 15.0616 14.8759 14.8452 15.1064 14.6274 15.3152 14.5365 15.4125 14.4596 15.4919 14.2624 15.7225 14.1331 15.8621 14.0908 15.9069 14.0562 15.9223 14.0319 15.8979 14.0139 15.8813 14.0165 15.8582 14.0575 15.8172 14.1062 15.7647 14.1382 15.7173 14.1612 15.6789 14.2125 15.5957 14.1561 15.5022 14.0665 15.3972 13.9345 15.2409 13.6617 14.9822 13.3416 14.6774L11.9046 13.3275ZM15.5406 12.7396C15.5214 12.755 15.5201 12.7665 15.5304 12.796L15.7558 13.4927C15.7929 13.6156 15.8454 13.7207 15.8826 13.7655 15.9363 13.8334 16.0094 13.8539 16.1233 13.7616L16.1797 13.7168C16.2245 13.6822 16.2424 13.681 16.2591 13.7014 16.2834 13.7309 16.2668 13.7565 16.2258 13.7898 16.1054 13.8846 15.9351 14.0024 15.8211 14.0934 15.7801 14.1267 15.5816 14.3021 15.3882 14.4571 15.3395 14.4955 15.3101 14.507 15.287 14.4776 15.2678 14.4532 15.278 14.4353 15.3088 14.411 15.3421 14.3841 15.392 14.338 15.4189 14.3111 15.5739 14.151 15.5432 13.9666 15.4689 13.7207L14.5339 10.62C14.4929 10.4765 14.4814 10.4163 14.5186 10.3869 14.5519 10.36 14.6018 10.3753 14.7068 10.4317 14.9617 10.5649 16.7791 11.6151 17.472 11.9942 17.8818 12.2171 18.0329 12.1838 18.1277 12.1389 18.193 12.1056 18.2519 12.0634 18.2968 12.0288 18.3262 12.0032 18.3493 11.9942 18.3698 12.0185 18.3954 12.048 18.3659 12.0839 18.2289 12.1953 18.0944 12.3029 17.8203 12.5206 17.5142 12.7524 17.4438 12.8024 17.399 12.8382 17.3798 12.8126 17.3618 12.7896 17.3708 12.7716 17.4054 12.737 17.4271 12.7089 17.4259 12.6538 17.3721 12.6243L16.4384 12.0685C16.4166 12.0557 16.3987 12.057 16.3808 12.0723L15.5406 12.7396ZM16.1554 11.943C16.1733 11.9276 16.1682 11.9148 16.1554 11.9058L15.0808 11.2488C15.0654 11.2373 15.0462 11.2219 15.0347 11.2296 15.0232 11.2386 15.0309 11.2616 15.0385 11.2821L15.4292 12.4783C15.4394 12.4963 15.4522 12.5052 15.465 12.4924L16.1554 11.943ZM18.6439 11.9122C18.5619 11.9238 18.5363 11.9097 18.4825 11.82 18.3493 11.5921 18.2186 11.3359 18.1841 11.2667 18.152 11.2027 18.1367 11.1502 18.17 11.1323 18.2058 11.1092 18.2327 11.1451 18.2507 11.1784 18.2814 11.2322 18.3506 11.309 18.412 11.3654 18.6836 11.6164 18.9922 11.5831 19.2471 11.432 19.6185 11.2117 19.6505 10.8543 19.5212 10.6341 19.4021 10.4343 19.2279 10.2806 18.7271 10.2152L18.4492 10.1794C17.7857 10.0936 17.4592 9.89762 17.2606 9.56463 16.9917 9.11124 17.1787 8.56308 17.7512 8.2224 18.0188 8.06359 18.2161 8.00211 18.3403 7.96753 18.3826 7.95345 18.4108 7.95345 18.4274 7.98418 18.4581 8.03798 18.5119 8.16733 18.704 8.4888 18.7578 8.57973 18.7642 8.622 18.7309 8.63993 18.704 8.65658 18.6759 8.63993 18.6477 8.58998 18.6246 8.55284 18.5286 8.43757 18.38 8.38122 18.2724 8.34023 18.079 8.28644 17.8114 8.44525 17.5065 8.62712 17.4259 8.91273 17.5719 9.16119 17.6846 9.34946 17.8652 9.43911 18.3582 9.49547L18.5247 9.5134C19.2445 9.5928 19.5916 9.77211 19.8247 10.164 19.9643 10.4035 20.0437 10.7404 19.8606 11.1092 19.7325 11.3628 19.5237 11.5357 19.306 11.6676 19.0703 11.8047 18.8667 11.8853 18.6439 11.9122ZM43.6594 8.43245 43.0331 8.08664C42.7885 7.95345 42.6771 7.9163 42.5618 7.97138 42.4824 8.00724 42.4325 8.04694 42.4069 8.07512 42.3787 8.10201 42.3569 8.11098 42.33 8.09817 42.3031 8.08152 42.3044 8.05591 42.3326 8.0098 42.3697 7.94448 42.6707 7.61405 42.6976 7.58459 42.7411 7.53848 42.7693 7.52055 42.7936 7.53592 42.8269 7.55641 42.8436 7.62045 42.9422 7.68961 43.0549 7.77158 43.2073 7.87404 43.3418 7.95217L44.9786 8.91273C45.1118 8.99213 45.2091 9.03184 45.2757 9.06001 45.3449 9.08435 45.3833 9.09459 45.4 9.10484 45.4281 9.12277 45.4192 9.14966 45.382 9.21114 45.3308 9.29695 45.1502 9.57615 45.0887 9.68374 45.0618 9.72216 45.0375 9.74265 45.0119 9.72856 44.9799 9.70807 44.9837 9.68374 45.0157 9.61842L45.0388 9.57231C45.0926 9.45833 45.049 9.27902 44.6879 9.05489L44.1743 8.7347 43.1804 10.4291C42.9576 10.8095 42.7667 11.1361 42.6809 11.3244 42.6259 11.4486 42.599 11.5536 42.7117 11.642 42.7655 11.6843 42.85 11.7457 42.9115 11.7816 42.9576 11.8085 42.9717 11.8328 42.9589 11.8533 42.9422 11.8815 42.9025 11.8764 42.8564 11.8482 42.5849 11.6919 42.3326 11.5267 42.216 11.4589 42.1225 11.4038 41.8549 11.2629 41.6884 11.1656 41.6346 11.1361 41.6128 11.1041 41.6294 11.0772 41.6422 11.0554 41.6653 11.0529 41.7152 11.0823 41.7767 11.1195 41.8318 11.1399 41.8741 11.1528 41.9663 11.1848 42.0444 11.1092 42.1264 10.9965 42.2493 10.8351 42.4402 10.5085 42.6643 10.1282L43.6594 8.43245ZM45.8175 11.1566C46.2926 10.6046 46.3785 10.5021 46.4719 10.3817 46.5706 10.2511 46.5911 10.1691 46.4937 10.0398 46.4707 10.009 46.4143 9.95141 46.3605 9.90659 46.3208 9.87201 46.3054 9.84639 46.3272 9.82078 46.3503 9.79516 46.381 9.80925 46.4348 9.85664 46.6269 10.0219 46.8472 10.2293 46.9561 10.3228 47.0432 10.3971 47.2814 10.5841 47.412 10.6955 47.4658 10.7429 47.4863 10.7711 47.4632 10.7967 47.4402 10.8223 47.4133 10.8108 47.3774 10.7788 47.3377 10.7455 47.3121 10.7288 47.2622 10.6994 47.1482 10.6315 47.0662 10.6712 46.9497 10.7903 46.8421 10.9017 46.755 11.0029 46.2824 11.5562L45.8469 12.0634C45.3948 12.591 45.3103 12.9023 45.3628 13.202 45.4115 13.476 45.5652 13.6348 45.6894 13.7411 45.8495 13.8769 46.089 13.9947 46.3592 13.9755 46.7307 13.9486 47.0227 13.6284 47.3441 13.2557L47.736 12.8024C48.2099 12.2491 48.297 12.1479 48.3905 12.0275 48.4891 11.8956 48.5096 11.8136 48.4123 11.6843 48.3892 11.6535 48.3329 11.5972 48.2906 11.56 48.2496 11.5267 48.2343 11.4998 48.256 11.4755 48.2778 11.4499 48.3098 11.464 48.3585 11.5075 48.5455 11.6663 48.7632 11.8738 48.767 11.8777 48.8106 11.9135 49.0488 12.1005 49.191 12.2222 49.2422 12.2657 49.2614 12.2965 49.2396 12.3208 49.2179 12.3477 49.1897 12.3349 49.1461 12.2977 49.1064 12.2632 49.0821 12.2478 49.0322 12.2183 48.9182 12.1517 48.8362 12.1902 48.7197 12.3093 48.6134 12.4194 48.5263 12.5219 48.0524 13.0739L47.7168 13.4619C47.371 13.8654 46.9625 14.2598 46.4335 14.2598 45.9853 14.2598 45.6894 14.0754 45.4525 13.8731 45.2604 13.7078 44.9197 13.3966 44.8608 12.9292 44.8185 12.6038 44.912 12.2158 45.3641 11.6881L45.8175 11.1566ZM49.4497 14.5762C50.0171 14.1215 50.1195 14.0357 50.2348 13.932 50.3552 13.8231 50.391 13.745 50.3167 13.6003 50.3001 13.5644 50.2527 13.4978 50.2104 13.4453 50.1784 13.4043 50.1669 13.3761 50.1925 13.3544 50.2194 13.3339 50.2476 13.3544 50.2924 13.4094 50.4525 13.6067 50.6293 13.8526 50.692 13.9294 50.7932 14.0575 51.0353 14.3303 51.1262 14.4468 51.3157 14.6825 51.495 14.9502 51.5207 15.2627 51.5335 15.4241 51.463 15.7263 51.2133 15.9299 50.9366 16.1515 50.5908 16.2399 49.9812 16.1105 49.8313 16.7791 49.7058 17.3042 49.652 17.7102 49.6034 18.0931 49.7007 18.2686 49.7327 18.3313 49.7596 18.3787 49.7814 18.4133 49.807 18.4453 49.8313 18.4735 49.8326 18.4991 49.8134 18.5145 49.784 18.5401 49.7558 18.5183 49.7186 18.4735L49.433 18.1213C49.264 17.9125 49.2076 17.8037 49.1833 17.6654 49.1397 17.4361 49.2012 17.1543 49.319 16.7125 49.4036 16.3974 49.5188 16.0222 49.5381 15.9299 49.5457 15.8928 49.5291 15.8659 49.5099 15.8416L49.2563 15.5111C49.2409 15.4906 49.2268 15.4855 49.2025 15.5047L49.15 15.5457C48.8029 15.8262 48.5083 16.0619 48.3675 16.2079 48.2688 16.3065 48.2048 16.3949 48.2804 16.5191 48.3175 16.5806 48.3764 16.6689 48.4123 16.7125 48.4379 16.7419 48.4392 16.7663 48.42 16.7829 48.3931 16.8034 48.361 16.7868 48.3226 16.7381 48.1472 16.5217 47.9371 16.2348 47.8923 16.1784 47.8359 16.108 47.6349 15.8838 47.5158 15.7327 47.4761 15.684 47.4671 15.6495 47.4914 15.6277 47.5119 15.6123 47.5337 15.6187 47.5708 15.6635 47.6144 15.7186 47.6579 15.757 47.6938 15.7865 47.7693 15.8493 47.8667 15.8019 47.9871 15.7301 48.16 15.6226 48.4533 15.3831 48.7978 15.109L49.4497 14.5762ZM49.5086 15.2537C49.4676 15.287 49.4587 15.3062 49.4689 15.3421 49.506 15.442 49.5842 15.5624 49.6597 15.6559 49.7801 15.8044 49.8339 15.8416 49.9364 15.8698 50.108 15.9146 50.3667 15.8864 50.6728 15.6379 51.203 15.2114 51.0724 14.7376 50.8956 14.5173 50.8201 14.4251 50.7625 14.3597 50.7215 14.3316 50.6933 14.3098 50.6728 14.3162 50.6421 14.3393L49.5086 15.2537ZM51.9868 18.0752C52.6144 17.7051 52.7297 17.6372 52.8578 17.5514 52.991 17.4604 53.0396 17.3772 53.0063 17.2747 52.991 17.2222 52.9641 17.1671 52.9346 17.1172 52.909 17.0762 52.9051 17.0455 52.9359 17.0263 52.9628 17.0122 52.9884 17.0416 53.0281 17.1057 53.1203 17.2632 53.2612 17.5296 53.3316 17.6487 53.3918 17.7524 53.5481 17.9881 53.6403 18.1444 53.671 18.1982 53.6826 18.2366 53.6595 18.2507 53.6275 18.2712 53.6044 18.2507 53.5801 18.2084 53.5558 18.1674 53.5314 18.1367 53.4968 18.0918 53.411 17.992 53.3188 18.0022 53.1715 18.0778 53.0345 18.1469 52.9192 18.2161 52.2904 18.5849L51.5655 19.0127C51.1659 19.2496 50.8393 19.4418 50.6715 19.5634 50.5678 19.6416 50.5101 19.7146 50.5665 19.8478 50.5934 19.9105 50.6382 20.0053 50.6741 20.068 50.701 20.1129 50.701 20.1423 50.6792 20.1526 50.651 20.1705 50.619 20.1436 50.5921 20.0988 50.432 19.8273 50.2924 19.5596 50.2245 19.4482 50.1695 19.3534 50.003 19.1011 49.9056 18.9359 49.8749 18.8821 49.8711 18.8462 49.8979 18.8296 49.9197 18.818 49.9402 18.827 49.9709 18.8757 50.0068 18.9384 50.0452 18.982 50.076 19.0153 50.1413 19.0883 50.2245 19.0703 50.3526 19.0127 50.5383 18.932 50.8624 18.7386 51.2645 18.5042L51.9868 18.0752ZM51.6321 21.1234C51.8332 20.533 52.2814 20.2128 52.7105 20.0347 53.0114 19.9092 53.5711 19.7876 54.1372 20.0514 54.5612 20.2486 54.9108 20.5957 55.1836 21.2553 55.2976 21.5294 55.3475 21.701 55.4064 21.9149 55.4526 22.0929 55.473 22.2504 55.514 22.3888 55.5294 22.4387 55.5153 22.4656 55.4871 22.4758 55.4513 22.4912 55.3936 22.5002 55.2348 22.5553 55.0863 22.6078 54.8429 22.7128 54.7507 22.7397 54.6828 22.764 54.6431 22.7679 54.6265 22.7294 54.6124 22.6936 54.6444 22.6705 54.7059 22.6462 54.8404 22.5847 54.9723 22.4618 55.0427 22.3042 55.1362 22.0942 55.1144 21.6997 54.9454 21.2924 54.7853 20.9082 54.5842 20.6956 54.3268 20.5739 53.8977 20.3741 53.4431 20.4638 53.014 20.6418 51.9612 21.0773 51.7691 22.0942 52.015 22.6872 52.1777 23.0829 52.3211 23.3019 52.5978 23.3967 52.713 23.4351 52.8654 23.4403 52.95 23.4249 53.0281 23.4095 53.0473 23.4108 53.064 23.4467 53.0768 23.4761 53.0486 23.5004 53.014 23.5145 52.9615 23.5363 52.5542 23.6426 52.3852 23.6605 52.3006 23.6695 52.2712 23.6605 52.2097 23.5965 52.065 23.4505 51.8946 23.1265 51.7768 22.8421 51.5271 22.2351 51.4489 21.6703 51.6321 21.1234ZM54.784 24.712C55.4948 24.5519 55.6255 24.525 55.7715 24.4802 55.929 24.4354 55.9956 24.3816 55.9943 24.2189 55.9943 24.1792 55.9815 24.0986 55.9674 24.0332 55.9559 23.982 55.9585 23.9513 55.9917 23.9449 56.025 23.9372 56.0417 23.9679 56.0583 24.0384 56.0852 24.1652 56.1121 24.3009 56.1378 24.4175 56.1621 24.5404 56.18 24.6493 56.1941 24.712 56.2274 24.8619 56.4362 25.793 56.4605 25.8801 56.49 25.9672 56.5156 26.0402 56.5348 26.0748 56.545 26.0978 56.5642 26.1221 56.5694 26.1465 56.5745 26.1708 56.5566 26.1785 56.5348 26.1836 56.5028 26.19 56.4413 26.1798 56.2223 26.2131 56.1736 26.2195 55.9661 26.2553 55.9085 26.2592 55.8829 26.2592 55.8547 26.2566 55.847 26.2259 55.8393 26.1939 55.8611 26.1785 55.9021 26.1695 55.9341 26.1631 56.0135 26.1401 56.0635 26.1029 56.1403 26.0504 56.1864 25.9915 56.1621 25.7533 56.1544 25.6726 56.0532 25.1795 56.0302 25.086 56.025 25.063 56.0084 25.0578 55.9764 25.0642L54.7942 25.3306C54.7609 25.3383 54.743 25.3473 54.7494 25.3742 54.7738 25.4779 54.8929 26.0146 54.9287 26.1209 54.962 26.231 54.9928 26.2976 55.0491 26.3296 55.0939 26.354 55.1208 26.3655 55.1272 26.3898 55.1311 26.409 55.126 26.4231 55.0991 26.4308 55.0709 26.4372 54.9928 26.4346 54.7494 26.4692 54.6546 26.4872 54.4638 26.514 54.4318 26.5217 54.3959 26.5294 54.3447 26.5435 54.3332 26.4987 54.3255 26.4667 54.3434 26.4526 54.3652 26.4474 54.4113 26.4321 54.4715 26.4193 54.5291 26.3911 54.6175 26.3463 54.6726 26.2643 54.6521 26.0888 54.6418 25.9979 54.5419 25.533 54.5189 25.4216 54.5138 25.3972 54.492 25.396 54.4651 25.4024L54.0962 25.4856C53.9374 25.5215 53.5058 25.6137 53.3713 25.6483 53.0512 25.7277 52.9974 25.8199 53.1049 26.2976 53.1318 26.4193 53.1779 26.6152 53.2599 26.7241 53.3432 26.833 53.4546 26.8675 53.6544 26.8573 53.7082 26.856 53.7287 26.8598 53.7351 26.8919 53.7428 26.929 53.7069 26.938 53.6582 26.9482 53.5506 26.9738 53.2253 27.0059 53.1254 27.0033 52.9948 26.9982 52.9871 26.9559 52.9461 26.7779 52.8667 26.4295 52.8193 26.1682 52.7784 25.9659 52.7438 25.7635 52.7143 25.6175 52.6836 25.4766 52.672 25.4254 52.6503 25.3217 52.6195 25.2115 52.5952 25.1039 52.5593 24.9848 52.5388 24.8913 52.5235 24.8311 52.5312 24.7953 52.5645 24.7876 52.5888 24.7825 52.6067 24.7978 52.6183 24.8542 52.6336 24.9246 52.6554 24.9784 52.6746 25.0181 52.7143 25.1065 52.8219 25.1078 52.9641 25.0975 53.1639 25.0758 53.534 24.9938 53.963 24.8977L54.784 24.712ZM53.9028 28.8002C53.5289 28.8232 53.4072 28.8898 53.3777 28.9872 53.3508 29.0691 53.3508 29.1626 53.3521 29.2369 53.3534 29.2894 53.3457 29.3189 53.3175 29.3189 53.2804 29.3202 53.2676 29.2779 53.265 29.2113 53.2535 28.9001 53.2612 28.7067 53.2586 28.6158 53.2574 28.5735 53.2343 28.3481 53.2279 28.1009 53.2253 28.0394 53.2292 27.9946 53.2702 27.9946 53.2983 27.9933 53.3099 28.0215 53.3111 28.0702 53.3137 28.1329 53.3214 28.2187 53.3419 28.284 53.3854 28.4083 53.525 28.4211 53.9413 28.4134L56.7768 28.357C56.8729 28.3532 56.9408 28.366 56.9421 28.4134 56.9433 28.4659 56.8831 28.5095 56.8012 28.5965 56.7397 28.6555 55.9853 29.4111 55.3168 30.1347 55.003 30.4716 54.3345 31.1427 54.2627 31.2259L54.2627 31.2515 56.4105 31.126C56.7038 31.1107 56.7922 31.0645 56.8358 30.948 56.8627 30.875 56.8588 30.761 56.8563 30.6931 56.855 30.6355 56.8678 30.615 56.896 30.615 56.9344 30.6137 56.9408 30.6662 56.9433 30.7367 56.9523 30.9851 56.9459 31.217 56.9497 31.3169 56.951 31.3694 56.9741 31.5512 56.9805 31.7856 56.9818 31.8484 56.9805 31.8958 56.9408 31.897 56.9139 31.8983 56.8972 31.8701 56.8947 31.8125 56.8934 31.7638 56.8921 31.728 56.8755 31.6703 56.8319 31.5371 56.7307 31.5013 56.4618 31.5077L53.4405 31.5615C53.3355 31.5653 53.2919 31.5474 53.2894 31.5051 53.2881 31.4526 53.338 31.3924 53.3893 31.3386 53.6659 31.0274 54.2704 30.3934 54.7469 29.876 55.2464 29.3368 55.8253 28.7835 55.9136 28.6939L55.9136 28.6798 53.9028 28.8002ZM53.2599 33.22C53.3047 33.147 53.3316 33.1381 53.4354 33.1509 53.6954 33.1893 53.9784 33.2482 54.0514 33.2662 54.1219 33.2815 54.1718 33.3007 54.1667 33.3404 54.1616 33.384 54.118 33.3814 54.0809 33.3763 54.0181 33.3661 53.9169 33.3725 53.8324 33.384 53.4661 33.4378 53.2983 33.699 53.2561 33.9936 53.1946 34.4201 53.4533 34.6699 53.7069 34.7083 53.94 34.7403 54.1667 34.7006 54.533 34.3535L54.7353 34.1601C55.2182 33.699 55.5755 33.5646 55.9597 33.6196 56.481 33.6965 56.7909 34.1844 56.6987 34.844 56.6539 35.1514 56.577 35.3461 56.5258 35.4626 56.5105 35.5023 56.4938 35.5254 56.4592 35.5203 56.3977 35.5113 56.2645 35.4729 55.8944 35.4204 55.7894 35.405 55.7548 35.3858 55.7599 35.3474 55.7651 35.3141 55.7945 35.3038 55.8521 35.3128 55.8944 35.3179 56.043 35.3153 56.1826 35.2334 56.2825 35.1745 56.4451 35.0579 56.4887 34.7493 56.5399 34.4009 56.3644 34.1563 56.0814 34.1153 55.8637 34.0858 55.6818 34.1691 55.327 34.52L55.2079 34.6391C54.6944 35.1489 54.337 35.3064 53.8875 35.2436 53.6121 35.2052 53.3009 35.0541 53.1267 34.6801 53.0089 34.4214 53.0025 34.1499 53.0409 33.8988 53.0768 33.6184 53.1408 33.4109 53.2599 33.22ZM54.6944 37.2851C55.3949 37.4824 55.5243 37.5195 55.6754 37.5515 55.8355 37.5861 55.9251 37.5631 55.9764 37.4683 56.0046 37.4222 56.0263 37.3633 56.0417 37.3082 56.0558 37.2621 56.0712 37.2365 56.1096 37.2467 56.1365 37.2557 56.1365 37.2941 56.1147 37.3684 56.0648 37.5451 55.97 37.8295 55.9303 37.9652 55.8995 38.0805 55.8368 38.3558 55.7868 38.5287 55.7689 38.5889 55.751 38.6235 55.7215 38.6158 55.6856 38.6043 55.6844 38.5749 55.6959 38.5287 55.7074 38.4826 55.7151 38.4468 55.7215 38.3879 55.7343 38.2559 55.6652 38.1996 55.5063 38.1445 55.3629 38.0933 55.2335 38.0574 54.533 37.8589L53.7223 37.6271C53.2753 37.5003 52.9115 37.3978 52.7079 37.3607 52.5798 37.3389 52.4876 37.3479 52.43 37.4824 52.4031 37.5451 52.3647 37.6437 52.3455 37.7129 52.3314 37.7641 52.3122 37.7833 52.2878 37.7769 52.2558 37.768 52.252 37.727 52.266 37.6758 52.3506 37.3735 52.4479 37.0853 52.4825 36.9598 52.5107 36.8548 52.5811 36.5602 52.6336 36.3758 52.6503 36.3156 52.672 36.2887 52.7053 36.2964 52.7284 36.3028 52.7374 36.3246 52.722 36.3809 52.7015 36.4488 52.6951 36.5077 52.6951 36.5513 52.6874 36.6486 52.7579 36.6986 52.8859 36.7498 53.0729 36.8279 53.4379 36.9304 53.8836 37.0559L54.6944 37.2851ZM51.8729 38.9744C51.9343 38.9155 51.9612 38.913 52.0598 38.954 52.3006 39.0577 52.5581 39.1922 52.6247 39.2242 52.69 39.2575 52.731 39.2934 52.7169 39.3267 52.7002 39.3664 52.658 39.3535 52.6234 39.3382 52.567 39.3138 52.4658 39.2934 52.3826 39.2818 52.015 39.2396 51.7845 39.4458 51.6654 39.7198 51.4938 40.1156 51.6795 40.4243 51.9113 40.5254 52.1264 40.6164 52.357 40.6407 52.8001 40.3961L53.0447 40.2629C53.6313 39.9427 54.0117 39.9081 54.3678 40.0631 54.8506 40.2718 55.0235 40.8264 54.7597 41.436 54.6354 41.7229 54.5138 41.8881 54.4318 41.9893 54.4062 42.0252 54.3831 42.0418 54.3524 42.0277 54.296 42.0009 54.1744 41.9304 53.8324 41.7818 53.7364 41.7409 53.7056 41.7114 53.7223 41.6768 53.7351 41.6487 53.7671 41.6461 53.8209 41.6679 53.8606 41.6845 54.0066 41.7217 54.1603 41.6794 54.273 41.6512 54.4587 41.5782 54.5829 41.2926 54.7238 40.9673 54.6201 40.6868 54.3562 40.5728 54.1539 40.4857 53.9566 40.5203 53.5225 40.7636L53.3777 40.8456C52.7476 41.2042 52.3634 41.2619 51.9446 41.0826 51.6897 40.9724 51.4284 40.7444 51.358 40.3397 51.3119 40.058 51.3798 39.7954 51.4797 39.5636 51.5911 39.3113 51.7076 39.1269 51.8729 38.9744ZM17.6628 53.5007C17.6321 53.5007 17.5911 53.4981 17.5168 53.4751 17.4489 53.4559 17.4271 53.4008 17.4015 53.2369L17.1595 51.6359C17.1479 51.5744 17.1159 51.5373 17.0775 51.5347 17.0404 51.536 17.0109 51.5655 16.9891 51.6116L16.2873 53.0358 15.588 51.6295C15.5547 51.5565 15.5239 51.5347 15.4855 51.5347 15.4484 51.536 15.4189 51.5719 15.4125 51.6193L15.1474 53.3111C15.1359 53.397 15.1064 53.4917 15.0565 53.493 15.0155 53.4981 14.9976 53.4981 14.9771 53.4981 14.945 53.4981 14.9143 53.5135 14.913 53.5455 14.913 53.5865 14.9553 53.5967 14.9835 53.5967 15.0706 53.5967 15.1986 53.5865 15.2499 53.5865 15.2973 53.5865 15.4189 53.5967 15.5329 53.5967 15.5701 53.5967 15.6162 53.5903 15.6187 53.5455 15.6149 53.5109 15.5854 53.4994 15.5547 53.4981 15.5316 53.4981 15.5099 53.4956 15.465 53.4866 15.4202 53.4751 15.401 53.4648 15.3997 53.4302 15.3997 53.3905 15.4023 53.356 15.4087 53.3111L15.5291 52.3557C15.6187 52.5414 15.7532 52.8155 15.7724 52.8616 15.8032 52.9384 16.0158 53.3316 16.0811 53.452 16.1246 53.5302 16.1502 53.5865 16.2079 53.5942 16.2591 53.5891 16.2732 53.5545 16.3347 53.4354L16.8879 52.3262 17.0275 53.3918C17.0301 53.4149 17.0314 53.4328 17.0314 53.4469 17.0314 53.4764 17.0275 53.4751 17.0288 53.4776 17.0096 53.4853 16.9866 53.4968 16.984 53.525 16.9878 53.5622 17.0211 53.575 17.0839 53.5775 17.1915 53.5839 17.5731 53.5967 17.6423 53.5967 17.682 53.5955 17.7268 53.5929 17.7332 53.5455 17.7243 53.5109 17.6897 53.5007 17.6628 53.5007ZM19.8516 51.8972C19.5519 51.5937 19.0921 51.5962 18.7578 51.5962 18.5965 51.5962 18.4031 51.6013 18.3211 51.6013 18.2443 51.6013 18.0739 51.5962 17.933 51.5962 17.8972 51.5962 17.8536 51.5988 17.8511 51.641 17.8523 51.6782 17.8882 51.691 17.9189 51.691 17.9574 51.691 18.0035 51.6936 18.0201 51.6987 18.1008 51.7256 18.1111 51.7345 18.12 51.8203 18.1239 51.901 18.1239 51.974 18.1239 52.3698L18.1239 52.8245C18.1239 53.0652 18.1239 53.2676 18.1111 53.3752 18.0995 53.4533 18.0867 53.4853 18.047 53.4956 18.024 53.5007 17.9958 53.5033 17.9587 53.5033 17.9189 53.5033 17.8946 53.5289 17.8946 53.5532 17.8959 53.5891 17.9318 53.6019 17.9689 53.6019 18.024 53.6019 18.0918 53.5993 18.1559 53.5955 18.2212 53.5955 18.2801 53.5916 18.3083 53.5916 18.3749 53.5916 18.4709 53.5993 18.5773 53.6083 18.6836 53.6147 18.8014 53.6236 18.8987 53.6236 19.3995 53.6236 19.6877 53.4379 19.8145 53.3124 19.9694 53.16 20.1129 52.909 20.1129 52.5747 20.1116 52.2571 19.9886 52.0355 19.8516 51.8972ZM19.6825 52.6452C19.6825 52.9103 19.6287 53.1344 19.4622 53.2702 19.3047 53.4021 19.1318 53.4431 18.891 53.4431 18.6836 53.4443 18.5837 53.3867 18.558 53.3496 18.544 53.3342 18.5324 53.2394 18.5311 53.1779 18.5273 53.1267 18.5235 52.9282 18.5235 52.6541L18.5235 52.3275C18.5235 52.1239 18.5235 51.91 18.5273 51.8203 18.5311 51.7935 18.5273 51.7973 18.5478 51.7896 18.5593 51.7806 18.6528 51.7704 18.7053 51.7717 18.9141 51.7717 19.1997 51.7986 19.4405 52.0125 19.5545 52.1136 19.6825 52.3224 19.6825 52.6452ZM22.2223 53.0665C22.1864 53.0652 22.1698 53.0985 22.1685 53.137 22.1608 53.1792 22.1249 53.2522 22.0814 53.2996 21.9815 53.411 21.8598 53.4302 21.6229 53.4302 21.2745 53.429 20.8096 53.1459 20.8083 52.5453 20.8083 52.2942 20.857 52.0509 21.0491 51.887 21.1656 51.7883 21.3091 51.7461 21.5409 51.7461 21.783 51.7461 21.9597 51.8101 22.0442 51.8921 22.107 51.9548 22.139 52.0406 22.1416 52.1188 22.1416 52.1482 22.1467 52.193 22.1915 52.1956 22.2376 52.1918 22.2466 52.1469 22.2492 52.1124 22.2517 52.0598 22.2517 51.9164 22.2581 51.8306 22.2632 51.7409 22.2709 51.7102 22.2709 51.6871 22.2735 51.6603 22.2453 51.6359 22.2107 51.6359 22.1326 51.6257 22.0455 51.6077 21.9443 51.5924 21.8214 51.577 21.7189 51.5655 21.5499 51.5655 21.149 51.5655 20.8839 51.6718 20.6854 51.8472 20.4228 52.0829 20.3639 52.3928 20.3639 52.5722 20.3639 52.8257 20.4356 53.1293 20.7071 53.3534 20.9569 53.5634 21.2732 53.6403 21.6421 53.6403 21.8175 53.6403 22.0212 53.6249 22.1352 53.5801 22.1826 53.5634 22.2082 53.5378 22.2184 53.4917 22.2453 53.3995 22.2761 53.1779 22.2761 53.1421 22.2735 53.1062 22.262 53.0704 22.2223 53.0665ZM24.3714 53.0665C24.3355 53.0652 24.3188 53.0985 24.3163 53.137 24.3099 53.1792 24.2727 53.2522 24.2305 53.2996 24.1293 53.411 24.0089 53.4302 23.772 53.4302 23.4223 53.429 22.9574 53.1459 22.9561 52.5453 22.9561 52.2942 23.0048 52.0509 23.1969 51.887 23.3147 51.7883 23.4569 51.7461 23.6887 51.7461 23.9321 51.7461 24.1075 51.8101 24.1933 51.8921 24.2561 51.9548 24.2855 52.0406 24.2894 52.1188 24.2894 52.1482 24.2971 52.193 24.3393 52.1956 24.3867 52.1918 24.3944 52.1469 24.397 52.1124 24.3995 52.0598 24.3995 51.9164 24.4072 51.8306 24.4123 51.7409 24.4187 51.7102 24.42 51.6871 24.4213 51.6603 24.3931 51.6359 24.3598 51.6359 24.2804 51.6257 24.1946 51.6077 24.0934 51.5924 23.9692 51.577 23.8667 51.5655 23.699 51.5655 23.2968 51.5655 23.0317 51.6718 22.8332 51.8472 22.5706 52.0829 22.5117 52.3928 22.5117 52.5722 22.5117 52.8257 22.5834 53.1293 22.8562 53.3534 23.1047 53.5634 23.421 53.6403 23.7899 53.6403 23.9654 53.6403 24.1703 53.6249 24.283 53.5801 24.3304 53.5634 24.3573 53.5378 24.365 53.4917 24.3918 53.3995 24.4226 53.1779 24.4239 53.1421 24.4226 53.1062 24.4111 53.0704 24.3714 53.0665ZM26.5205 53.0665C26.4859 53.0652 26.4679 53.0985 26.4654 53.137 26.4577 53.1792 26.4218 53.2522 26.3808 53.2996 26.2797 53.411 26.158 53.4302 25.9211 53.4302 25.5727 53.429 25.1078 53.1459 25.1078 52.5453 25.1078 52.2942 25.1552 52.0509 25.3473 51.887 25.4651 51.7883 25.6073 51.7461 25.8404 51.7461 26.0824 51.7461 26.2592 51.8101 26.345 51.8921 26.4077 51.9548 26.4398 52.0406 26.4423 52.1188 26.4423 52.1482 26.4487 52.193 26.4923 52.1956 26.5397 52.1918 26.5473 52.1469 26.5499 52.1124 26.5525 52.0598 26.5525 51.9164 26.5589 51.8306 26.5653 51.7409 26.5704 51.7102 26.5704 51.6871 26.573 51.6603 26.5461 51.6359 26.5115 51.6359 26.4334 51.6257 26.3463 51.6077 26.2438 51.5924 26.1221 51.577 26.0197 51.5655 25.8506 51.5655 25.4485 51.5655 25.1834 51.6718 24.9836 51.8472 24.721 52.0829 24.6621 52.3928 24.6621 52.5722 24.6621 52.8257 24.7351 53.1293 25.0066 53.3534 25.2551 53.5634 25.5714 53.6403 25.9403 53.6403 26.117 53.6403 26.3207 53.6249 26.4346 53.5801 26.4807 53.5634 26.5076 53.5378 26.5166 53.4917 26.5448 53.3995 26.5742 53.1779 26.5755 53.1421 26.5717 53.1062 26.5602 53.0704 26.5205 53.0665ZM36.8894 53.5007C36.8651 53.5007 36.8241 53.4981 36.792 53.4866 36.737 53.4674 36.6998 53.4456 36.6563 53.3905 36.5935 53.3124 36.1709 52.6464 36.0684 52.4902L36.5039 51.8946C36.5858 51.7806 36.6371 51.714 36.6857 51.7051 36.7203 51.6961 36.7536 51.691 36.7767 51.691 36.8087 51.691 36.8407 51.6731 36.842 51.641 36.8394 51.6013 36.801 51.5949 36.7703 51.5949 36.6678 51.5949 36.5577 51.6013 36.5077 51.6013 36.4565 51.6013 36.331 51.5949 36.226 51.5949 36.1888 51.5949 36.1491 51.6013 36.1466 51.641 36.1478 51.6769 36.1786 51.691 36.2016 51.691 36.2234 51.691 36.258 51.691 36.281 51.6987 36.3054 51.7038 36.3118 51.7179 36.3118 51.7217 36.3118 51.7384 36.3041 51.7717 36.2836 51.8037 36.2426 51.8716 36.0338 52.179 35.9404 52.3147 35.8392 52.1457 35.7342 51.974 35.6227 51.7794 35.6086 51.7537 35.5958 51.7192 35.5958 51.7128 35.5958 51.7102 35.5984 51.7012 35.6176 51.6961 35.6368 51.691 35.6637 51.6884 35.6765 51.6884 35.7034 51.6884 35.7393 51.6756 35.7406 51.6385 35.738 51.5988 35.6983 51.5924 35.6637 51.5924 35.5625 51.5924 35.3973 51.5988 35.3615 51.5988 35.2321 51.5988 35.0169 51.5924 34.9529 51.5924 34.9222 51.5937 34.8825 51.5937 34.8761 51.6359 34.8761 51.6628 34.8965 51.6884 34.9247 51.6884 34.9491 51.6884 34.99 51.6936 35.031 51.7064 35.1181 51.7345 35.1668 51.7858 35.2359 51.8882L35.6983 52.6106 35.1847 53.3073C35.0925 53.4341 35.0541 53.4674 34.9824 53.4892 34.9465 53.4981 34.9055 53.5007 34.8901 53.5007 34.8594 53.502 34.8325 53.5237 34.8325 53.5532 34.8325 53.5827 34.8632 53.5993 34.894 53.5993L34.9401 53.5993C34.9836 53.5993 35.1156 53.5891 35.1655 53.5891 35.2321 53.5891 35.4076 53.5993 35.4255 53.5993L35.4742 53.5993C35.5087 53.5993 35.5484 53.5942 35.551 53.5532 35.5484 53.5212 35.5241 53.5033 35.4959 53.5007 35.4767 53.5007 35.4575 53.4981 35.4383 53.4981 35.4216 53.4981 35.4101 53.4853 35.4101 53.4751 35.4101 53.4738 35.4101 53.4712 35.4101 53.4712 35.4101 53.452 35.4229 53.4174 35.446 53.3816L35.8212 52.8014C35.9404 52.9922 36.0787 53.2266 36.226 53.4674 36.2311 53.4764 36.2324 53.4828 36.2324 53.4853 36.2324 53.4917 36.2298 53.4917 36.2298 53.4917 36.2029 53.4981 36.1773 53.5186 36.1773 53.5468 36.185 53.5929 36.226 53.5903 36.2926 53.5955 36.5128 53.6019 36.7267 53.6019 36.792 53.6019L36.8715 53.6019C36.9022 53.6019 36.9419 53.5916 36.947 53.5532 36.9445 53.5199 36.9163 53.5007 36.8894 53.5007ZM39.1666 53.5007C39.1435 53.5007 39.1025 53.4981 39.0692 53.4866 39.0141 53.4674 38.9783 53.4456 38.9347 53.3905 38.872 53.3124 38.4493 52.6464 38.3456 52.4902L38.7823 51.8946C38.8643 51.7806 38.9155 51.714 38.9629 51.7051 38.9988 51.6961 39.0321 51.691 39.0551 51.691 39.0872 51.691 39.1192 51.6731 39.1192 51.641 39.1179 51.6013 39.0795 51.5949 39.0487 51.5949 38.9476 51.5949 38.8374 51.6013 38.7862 51.6013 38.7349 51.6013 38.6094 51.5949 38.5057 51.5949 38.4686 51.5949 38.4263 51.6013 38.4263 51.641 38.4276 51.6769 38.4596 51.691 38.4814 51.691 38.5044 51.691 38.5377 51.691 38.5608 51.6987 38.5851 51.7038 38.5915 51.7179 38.5902 51.7217 38.5902 51.7384 38.5825 51.7717 38.5633 51.8037 38.5223 51.8716 38.3136 52.179 38.2188 52.3147 38.1189 52.1444 38.0139 51.974 37.9025 51.7794 37.8871 51.7537 37.8756 51.7192 37.8768 51.7128 37.8768 51.7102 37.8781 51.7025 37.8973 51.6961 37.9178 51.691 37.9434 51.6884 37.9575 51.6884 37.9844 51.6884 38.0203 51.6756 38.0216 51.6385 38.019 51.5988 37.9793 51.5924 37.9434 51.5924 37.8423 51.5924 37.677 51.5988 37.6437 51.5988 37.5144 51.5988 37.2979 51.5924 37.2352 51.5924 37.2032 51.5937 37.1647 51.5937 37.1583 51.6359 37.1583 51.6628 37.1801 51.6884 37.2057 51.6884 37.2313 51.6884 37.2736 51.6936 37.312 51.7064 37.4004 51.7345 37.4491 51.7858 37.517 51.8882L37.9806 52.6106 37.4657 53.3073C37.3748 53.4341 37.3364 53.4674 37.2646 53.4892 37.2275 53.4981 37.1878 53.5007 37.1737 53.5007 37.1417 53.502 37.1161 53.5237 37.1148 53.5532 37.1148 53.5827 37.1443 53.5993 37.1763 53.5993L37.2224 53.5993C37.2672 53.5993 37.3978 53.5891 37.4478 53.5891 37.5144 53.5891 37.6899 53.5993 37.7078 53.5993L37.7565 53.5993C37.7898 53.5993 37.8307 53.5942 37.8333 53.5532 37.8307 53.5212 37.8064 53.5033 37.7782 53.5007 37.759 53.5007 37.7385 53.4981 37.7206 53.4981 37.7039 53.4981 37.6924 53.4879 37.6911 53.4751 37.6911 53.4738 37.6911 53.4712 37.6911 53.4712 37.6911 53.452 37.7039 53.4174 37.727 53.3816L38.101 52.8014C38.2188 52.9922 38.3584 53.2266 38.507 53.4674 38.5121 53.4764 38.5134 53.4828 38.5134 53.4853 38.5134 53.4904 38.5108 53.4917 38.5108 53.4917 38.4839 53.4981 38.4583 53.5186 38.4583 53.5468 38.466 53.5929 38.507 53.5903 38.5736 53.5955 38.7926 53.6019 39.0065 53.6019 39.0718 53.6019L39.1512 53.6019C39.1819 53.6019 39.2216 53.5916 39.2255 53.5532 39.2216 53.5199 39.1947 53.5007 39.1666 53.5007ZM41.4437 53.5007C41.4194 53.5007 41.3797 53.4981 41.3464 53.4866 41.2913 53.4674 41.2542 53.4456 41.2106 53.3905 41.1479 53.3124 40.7252 52.6464 40.6228 52.4902L41.0595 51.8946C41.1402 51.7806 41.1927 51.714 41.2401 51.7051 41.276 51.6961 41.308 51.691 41.3323 51.691 41.363 51.691 41.3951 51.6731 41.3963 51.641 41.3938 51.6013 41.3554 51.5949 41.3259 51.5949 41.2247 51.5949 41.1133 51.6013 41.0633 51.6013 41.0121 51.6013 40.8853 51.5949 40.7816 51.5949 40.7457 51.5949 40.7035 51.6013 40.7022 51.641 40.7035 51.6769 40.7342 51.691 40.7572 51.691 40.7777 51.691 40.8136 51.691 40.8354 51.6987 40.861 51.7038 40.8674 51.7179 40.8661 51.7217 40.8661 51.7384 40.8584 51.7717 40.8392 51.8037 40.7982 51.8716 40.5895 52.179 40.4947 52.3147 40.3935 52.1457 40.2885 51.974 40.1771 51.7794 40.163 51.7537 40.1515 51.7192 40.1515 51.7128 40.1515 51.7102 40.154 51.7012 40.1719 51.6961 40.1912 51.691 40.2181 51.6884 40.2309 51.6884 40.2578 51.6884 40.2936 51.6756 40.2949 51.6385 40.2923 51.5988 40.2539 51.5924 40.2181 51.5924 40.1169 51.5924 39.9517 51.5988 39.9158 51.5988 39.789 51.5988 39.5726 51.5924 39.5098 51.5924 39.4765 51.5937 39.4368 51.5937 39.4317 51.6359 39.4317 51.6628 39.4547 51.6884 39.4803 51.6884 39.506 51.6884 39.5469 51.6936 39.5866 51.7064 39.675 51.7345 39.7237 51.7858 39.7903 51.8882L40.2552 52.6106 39.7403 53.3073C39.6481 53.4341 39.611 53.4674 39.5393 53.4892 39.5021 53.4981 39.4637 53.5007 39.447 53.5007 39.4176 53.502 39.3894 53.5237 39.3894 53.5532 39.3894 53.5827 39.4201 53.5993 39.4496 53.5993L39.4957 53.5993C39.5405 53.5993 39.6725 53.5891 39.7224 53.5891 39.789 53.5891 39.9632 53.5993 39.9798 53.5993L40.0285 53.5993C40.0631 53.5993 40.1041 53.5942 40.1066 53.5532 40.1041 53.5212 40.0797 53.5033 40.0516 53.5007 40.0298 53.5007 40.0106 53.4981 39.9939 53.4981 39.976 53.4981 39.9645 53.4879 39.9632 53.4751L39.9632 53.4712C39.9632 53.452 39.976 53.4174 39.999 53.3816L40.3743 52.8014C40.4921 52.9922 40.6317 53.2266 40.7777 53.4674 40.7829 53.4764 40.7854 53.4828 40.7854 53.4853 40.7854 53.4904 40.7816 53.4917 40.7816 53.4917 40.7547 53.4981 40.7291 53.5186 40.7291 53.5468 40.738 53.5929 40.7777 53.5891 40.8456 53.5955 41.0659 53.6019 41.2798 53.6019 41.3438 53.6019L41.4232 53.6019C41.4553 53.6019 41.495 53.5916 41.4988 53.5532 41.4975 53.5199 41.4706 53.5007 41.4437 53.5007ZM42.8449 53.5007C42.8064 53.5007 42.745 53.4981 42.7117 53.4917 42.6387 53.4764 42.6335 53.4584 42.6233 53.3893 42.6118 53.2817 42.6118 53.0742 42.6118 52.8257L42.6118 52.3698C42.6118 51.974 42.6118 51.9036 42.6169 51.8203 42.6259 51.732 42.6361 51.714 42.6976 51.7 42.7283 51.6936 42.7475 51.691 42.7744 51.691 42.8013 51.691 42.8397 51.6756 42.8397 51.6385 42.8333 51.5962 42.7949 51.5962 42.7616 51.5949 42.6579 51.5949 42.4824 51.6013 42.4158 51.6013 42.3402 51.6013 42.1571 51.5949 42.0559 51.5949 42.0162 51.5962 41.9765 51.5949 41.9714 51.6385 41.9714 51.6756 42.0073 51.691 42.0367 51.691 42.0687 51.691 42.1008 51.6936 42.1277 51.7025 42.1789 51.7217 42.1955 51.7345 42.2045 51.8203 42.2071 51.901 42.2071 51.974 42.2071 52.3698L42.2071 52.8257C42.2071 53.0742 42.2071 53.2817 42.1942 53.3867 42.1827 53.4636 42.175 53.4802 42.1315 53.493 42.1084 53.4981 42.0803 53.5007 42.0418 53.5007 42.0021 53.5007 41.9765 53.5263 41.9765 53.5506 41.9778 53.5878 42.0162 53.5993 42.0508 53.5993 42.1584 53.5993 42.3428 53.5891 42.4004 53.5891 42.4722 53.5891 42.6566 53.5993 42.8333 53.5993 42.8654 53.5993 42.9038 53.5891 42.9076 53.5506 42.9102 53.5237 42.882 53.5007 42.8449 53.5007ZM44.4727 53.5007C44.4343 53.5007 44.3728 53.4981 44.3395 53.4917 44.2678 53.4764 44.2627 53.4584 44.2511 53.3893 44.2383 53.2817 44.2383 53.0742 44.2383 52.8257L44.2383 52.3698C44.2383 51.974 44.2383 51.9036 44.2447 51.8203 44.255 51.732 44.2639 51.714 44.3267 51.7 44.3561 51.6936 44.3766 51.691 44.4023 51.691 44.4291 51.691 44.4676 51.6756 44.4676 51.6385 44.4599 51.5962 44.424 51.5962 44.3895 51.5949 44.2844 51.5949 44.1102 51.6013 44.0436 51.6013 43.9668 51.6013 43.7849 51.5949 43.6838 51.5949 43.6428 51.5962 43.6044 51.5949 43.5979 51.6385 43.5979 51.6756 43.6351 51.691 43.662 51.691 43.694 51.691 43.7273 51.6936 43.7529 51.7025 43.8041 51.7217 43.8195 51.7345 43.8298 51.8203 43.8336 51.901 43.8336 51.974 43.8336 52.3698L43.8336 52.8257C43.8336 53.0742 43.8336 53.2817 43.8195 53.3867 43.808 53.4636 43.8003 53.4802 43.7568 53.493 43.7337 53.4981 43.7055 53.5007 43.6684 53.5007 43.6287 53.5007 43.6031 53.5263 43.6031 53.5506 43.6044 53.5878 43.6415 53.5993 43.6774 53.5993 43.7849 53.5993 43.9681 53.5891 44.027 53.5891 44.1 53.5891 44.2831 53.5993 44.4599 53.5993 44.4919 53.5993 44.5316 53.5891 44.5355 53.5506 44.5367 53.5237 44.5098 53.5007 44.4727 53.5007ZM46.1005 53.5007C46.0621 53.5007 46.0019 53.4981 45.9673 53.4917 45.8943 53.4764 45.8892 53.4584 45.879 53.3893 45.8662 53.2817 45.8662 53.0742 45.8662 52.8257L45.8662 52.3698C45.8662 51.974 45.8662 51.9036 45.8726 51.8203 45.8815 51.732 45.8905 51.714 45.9532 51.7 45.984 51.6936 46.0032 51.691 46.0301 51.691 46.057 51.691 46.0941 51.6756 46.0941 51.6385 46.0877 51.5962 46.0493 51.5962 46.0173 51.5949 45.9135 51.5949 45.7381 51.6013 45.6715 51.6013 45.5959 51.6013 45.4128 51.5949 45.3116 51.5949 45.2719 51.5962 45.2322 51.5949 45.2271 51.6385 45.2271 51.6756 45.2629 51.691 45.2911 51.691 45.3231 51.691 45.3551 51.6936 45.382 51.7025 45.4345 51.7217 45.4499 51.7345 45.4589 51.8203 45.4614 51.901 45.4614 51.974 45.4614 52.3698L45.4614 52.8257C45.4614 53.0742 45.4614 53.2817 45.4499 53.3867 45.4384 53.4636 45.4307 53.4802 45.3872 53.493 45.3628 53.4981 45.3359 53.5007 45.2975 53.5007 45.2578 53.5007 45.2335 53.5263 45.2335 53.5506 45.2347 53.5878 45.2732 53.5993 45.3077 53.5993 45.4153 53.5993 45.5998 53.5891 45.6587 53.5891 45.7304 53.5891 45.9148 53.5993 46.0916 53.5993 46.1223 53.5993 46.162 53.5891 46.1646 53.5506 46.1646 53.5225 46.1377 53.5007 46.1005 53.5007ZM29.9772 40.9506 29.9772 39.4291C29.9772 39.1448 29.7467 38.9143 29.4623 38.9143 29.178 38.9143 28.9475 39.1473 28.9475 39.4291L28.9475 40.9506 29.9772 40.9506ZM32.7654 40.9506 32.7654 39.4291C32.7654 39.1448 32.5348 38.9143 32.2518 38.9143 31.9649 38.9143 31.7357 39.1473 31.7357 39.4291L31.7357 40.9506 32.7654 40.9506ZM30.8558 10.3433C30.5587 10.3433 30.3153 10.5854 30.3153 10.8838 30.3153 11.1822 30.5574 11.4243 30.8558 11.4243 31.1542 11.4243 31.3975 11.1835 31.3975 10.8838 31.3963 10.5854 31.1542 10.3433 30.8558 10.3433ZM30.583 25.4267 31.1286 25.4267 31.1286 24.2548 30.583 24.2548 30.583 25.4267 30.583 25.4267ZM25.41 54.9966C25.1129 54.9966 24.8696 55.2374 24.8696 55.5371 24.8696 55.8368 25.1116 56.0776 25.41 56.0776 25.7085 56.0776 25.9518 55.8368 25.9518 55.5371 25.9518 55.2374 25.7085 54.9966 25.41 54.9966ZM25.0822 25.4472 25.0822 23.7246C25.0783 23.3211 24.8798 23.0419 24.5827 22.9113 24.2868 23.0419 24.0883 23.3199 24.0845 23.7259L24.0845 25.4472 25.0822 25.4472ZM25.0822 19.9131 25.0822 18.8014C25.0783 18.3979 24.8798 18.1175 24.5827 17.9855 24.2868 18.1187 24.0883 18.3967 24.0845 18.8014L24.0845 19.9118 25.0822 19.9118ZM24.8491 31.4283 24.8491 29.9849C24.8491 29.8363 24.73 29.7172 24.5814 29.7172 24.4328 29.7172 24.3137 29.8363 24.3137 29.9849L24.3137 31.4283 24.8491 31.4283ZM24.8491 35.7726 24.8491 34.3305C24.8491 34.1819 24.73 34.0602 24.5814 34.0602 24.4328 34.0602 24.3137 34.1819 24.3137 34.3305L24.3137 35.7726 24.8491 35.7726ZM25.0066 40.6266 25.0066 39.3459C25.0066 39.1051 24.8132 38.9117 24.5737 38.9117 24.3329 38.9117 24.1408 39.1051 24.1408 39.3459L24.1408 40.6266 25.0066 40.6266ZM24.5827 4.36607C24.2843 4.36607 24.0422 4.60813 24.0422 4.90655 24.0422 5.20496 24.283 5.44702 24.5827 5.44702 24.8798 5.44702 25.1232 5.20624 25.1232 4.90655 25.1232 4.60813 24.8811 4.36607 24.5827 4.36607ZM37.622 25.4472 37.622 23.7246C37.6194 23.3211 37.4196 23.0419 37.1238 22.9113 36.8279 23.0419 36.6281 23.3199 36.6256 23.7259L36.6256 25.4472 37.622 25.4472ZM37.622 19.9131 37.622 18.8014C37.6194 18.3979 37.4196 18.1175 37.1238 17.9855 36.8279 18.1187 36.6281 18.3967 36.6256 18.8014L36.6256 19.9118 37.622 19.9118ZM37.3902 31.4283 37.3902 29.9849C37.3902 29.8363 37.2698 29.7172 37.1225 29.7172 36.9752 29.7172 36.8548 29.8363 36.8548 29.9849L36.8548 31.4283 37.3902 31.4283ZM37.3902 35.7726 37.3902 34.3305C37.3902 34.1819 37.2698 34.0602 37.1225 34.0602 36.9752 34.0602 36.8548 34.1819 36.8548 34.3305L36.8548 35.7726 37.3902 35.7726ZM37.5477 40.6266 37.5477 39.3459C37.5477 39.1051 37.3543 38.9117 37.1148 38.9117 36.874 38.9117 36.6819 39.1051 36.6819 39.3459L36.6819 40.6266 37.5477 40.6266ZM37.1225 4.36607C36.8241 4.36607 36.582 4.60813 36.582 4.90655 36.582 5.20496 36.8228 5.44702 37.1225 5.44702 37.4196 5.44702 37.663 5.20624 37.663 4.90655 37.6642 4.60813 37.4222 4.36607 37.1225 4.36607ZM76.9845 27.3568C72.069 27.3568 70.9611 24.68 70.9611 21.7023L70.9611 11.5242 73.9606 11.5242 73.9606 21.5179C73.9606 23.48 74.6074 24.8644 77.192 24.8644 79.4999 24.8644 80.4694 23.8949 80.4694 21.2412L80.4694 11.5242 83.4471 11.5242 83.4471 21.0555C83.4471 25.3255 81.0919 27.3568 76.9845 27.3568ZM93.6931 27.1032 93.6931 19.7658C93.6931 18.5644 93.3691 17.8498 92.2843 17.8498 90.7833 17.8498 89.6063 19.5583 89.6063 21.5652L89.6063 27.1045 86.6516 27.1045 86.6516 15.6341 89.4449 15.6341C89.4449 16.1656 89.4001 17.0647 89.2835 17.6654L89.3079 17.6897C90.0007 16.3283 91.3391 15.3805 93.209 15.3805 95.7936 15.3805 96.6235 17.0429 96.6235 19.0498L96.6235 27.1045 93.6931 27.1032 93.6931 27.1032ZM101.31 14.1548C100.294 14.1548 99.486 13.3467 99.486 12.3554 99.486 11.3859 100.294 10.5764 101.31 10.5764 102.325 10.5764 103.154 11.3615 103.154 12.3554 103.155 13.348 102.325 14.1548 101.31 14.1548ZM99.8317 27.1032 99.8317 15.6328 102.786 15.6328 102.786 27.1032 99.8317 27.1032ZM111.695 27.1032 108.695 27.1032 104.45 15.6328 107.679 15.6328 109.503 20.8019C109.779 21.587 110.059 22.5104 110.266 23.3404L110.311 23.3404C110.497 22.5565 110.726 21.6779 111.002 20.8941L112.848 15.6328 115.987 15.6328 111.695 27.1032ZM126.534 21.8419 119.425 21.8419C119.402 23.9884 120.465 25.0245 122.587 25.0245 123.719 25.0245 124.942 24.7709 125.933 24.3086L126.21 26.5935C124.987 27.0776 123.533 27.3312 122.103 27.3312 118.455 27.3312 116.425 25.5087 116.425 21.4705 116.425 17.9625 118.364 15.3767 121.802 15.3767 125.146 15.3767 126.626 17.6615 126.626 20.4997 126.626 20.8941 126.603 21.3565 126.534 21.8419ZM121.709 17.5488C120.486 17.5488 119.632 18.4492 119.471 19.8337L123.695 19.8337C123.741 18.4018 122.957 17.5488 121.709 17.5488ZM135.234 18.2865C133.112 17.8472 132.052 19.233 132.052 22.4182L132.052 27.1032 129.096 27.1032 129.096 15.6328 131.889 15.6328C131.889 16.2091 131.818 17.1326 131.681 17.9407L131.728 17.9407C132.282 16.4871 133.39 15.2178 135.375 15.3792L135.234 18.2865ZM139.272 27.3337C138.444 27.3337 137.61 27.2428 136.872 27.1275L136.943 24.7031C137.659 24.8888 138.533 25.0502 139.413 25.0502 140.544 25.0502 141.282 24.5878 141.282 23.8258 141.282 21.7958 136.644 22.9472 136.644 19.0486 136.644 17.0416 138.281 15.3792 141.514 15.3792 142.182 15.3792 142.923 15.4714 143.614 15.5867L143.524 17.9177C142.878 17.7307 142.114 17.618 141.401 17.618 140.247 17.618 139.694 18.079 139.694 18.795 139.694 20.6649 144.402 19.8349 144.402 23.5504 144.397 25.8109 142.412 27.3337 139.272 27.3337ZM148.389 14.1548C147.373 14.1548 146.565 13.3467 146.565 12.3554 146.565 11.3859 147.373 10.5764 148.389 10.5764 149.404 10.5764 150.233 11.3615 150.233 12.3554 150.234 13.348 149.404 14.1548 148.389 14.1548ZM146.912 27.1032 146.912 15.6328 149.868 15.6328 149.868 27.1032 146.912 27.1032ZM157.341 27.3337C154.803 27.3337 153.995 26.4103 153.995 23.7335L153.995 17.9177 152.034 17.9177 152.034 15.6328 153.995 15.6328 153.995 12.1018 156.949 11.3167 156.949 15.6328 159.744 15.6328 159.744 17.9177 156.949 17.9177 156.949 22.9484C156.949 24.4251 157.296 24.8427 158.311 24.8427 158.795 24.8427 159.326 24.7722 159.741 24.657L159.741 27.034C159.001 27.2185 158.148 27.3337 157.341 27.3337ZM168.714 27.1032C168.714 26.4359 168.739 25.7648 168.831 25.1641L168.806 25.1398C168.251 26.4334 166.846 27.3324 165.137 27.3324 163.061 27.3324 161.858 26.1554 161.858 24.3099 161.858 21.5627 164.581 20.1103 168.482 20.1103L168.482 19.4866C168.482 18.2865 167.906 17.6641 166.245 17.6641 165.205 17.6641 163.819 18.0112 162.852 18.5644L162.599 16.0952C163.753 15.6802 165.232 15.3779 166.707 15.3779 170.401 15.3779 171.438 16.879 171.438 19.3713L171.438 24.1485C171.438 25.0719 171.461 26.1554 171.508 27.1032L168.714 27.1032 168.714 27.1032ZM164.654 13.7411C163.774 13.7411 163.062 13.0239 163.062 12.1479 163.062 11.2475 163.777 10.5546 164.654 10.5546 165.532 10.5546 166.246 11.2475 166.246 12.1479 166.246 13.0239 165.53 13.7411 164.654 13.7411ZM168.485 22.0263C165.369 22.0263 164.676 22.9267 164.676 23.8488 164.676 24.5878 165.183 25.0719 166.037 25.0719 167.491 25.0719 168.482 23.6874 168.482 22.3029L168.485 22.0263 168.485 22.0263ZM169.315 13.7411C168.438 13.7411 167.723 13.0239 167.723 12.1479 167.723 11.2475 168.44 10.5546 169.315 10.5546 170.19 10.5546 170.908 11.2475 170.908 12.1479 170.908 13.0239 170.192 13.7411 169.315 13.7411ZM178.728 27.3337C176.191 27.3337 175.383 26.4103 175.383 23.7335L175.383 17.9177 173.422 17.9177 173.422 15.6328 175.383 15.6328 175.383 12.1018 178.338 11.3167 178.338 15.6328 181.131 15.6328 181.131 17.9177 178.338 17.9177 178.338 22.9484C178.338 24.4251 178.685 24.8427 179.699 24.8427 180.185 24.8427 180.715 24.7722 181.129 24.657L181.129 27.034C180.39 27.2185 179.537 27.3337 178.728 27.3337ZM70.3835 51.4886 70.3835 49.1807 75.9919 40.04C76.3147 39.5098 76.6374 39.0487 77.0075 38.5633 76.453 38.5877 75.7153 38.6094 74.1681 38.6094L70.5679 38.6094 70.5679 35.9096 80.6295 35.9096 80.6295 38.3097 74.6984 47.6797C74.4678 48.0485 74.2603 48.3956 73.9837 48.7658 74.3756 48.7197 75.4373 48.7197 77.3533 48.7197L80.723 48.7197 80.723 51.4886 70.3835 51.4886ZM90.2723 51.4886C90.2723 50.9584 90.2953 50.058 90.4093 49.4574L90.3862 49.4343C89.6934 50.7945 88.3793 51.7422 86.4864 51.7422 83.8993 51.7422 83.0706 50.0798 83.0706 48.0729L83.0706 40.0183 86.0022 40.0183 86.0022 47.3569C86.0022 48.557 86.325 49.2729 87.4328 49.2729 88.9326 49.2729 90.0853 47.5644 90.0853 45.5575L90.0853 40.0183 93.0412 40.0183 93.0412 51.4886 90.2723 51.4886ZM85.5873 38.1266C84.71 38.1266 83.9953 37.4094 83.9953 36.5333 83.9953 35.6343 84.7125 34.9414 85.5873 34.9414 86.4646 34.9414 87.1805 35.6343 87.1805 36.5333 87.1792 37.4107 86.4646 38.1266 85.5873 38.1266ZM90.2492 38.1266C89.3719 38.1266 88.6572 37.4094 88.6572 36.5333 88.6572 35.6343 89.3732 34.9414 90.2492 34.9414 91.1278 34.9414 91.8412 35.6343 91.8412 36.5333 91.8412 37.4107 91.1265 38.1266 90.2492 38.1266ZM102.365 42.672C100.244 42.2327 99.1824 43.6184 99.1824 46.8037L99.1824 51.4886 96.2265 51.4886 96.2265 40.0183 99.021 40.0183C99.021 40.5946 98.9506 41.518 98.8136 42.3262L98.8597 42.3262C99.413 40.8725 100.521 39.6033 102.506 39.7647L102.365 42.672ZM106.115 38.5416C105.099 38.5416 104.291 37.7334 104.291 36.7421 104.291 35.7739 105.099 34.9644 106.115 34.9644 107.131 34.9644 107.959 35.7482 107.959 36.7421 107.961 37.7334 107.129 38.5416 106.115 38.5416ZM104.637 51.4886 104.637 40.0183 107.592 40.0183 107.592 51.4886 104.637 51.4886ZM114.92 51.6961C111.736 51.6961 109.751 50.035 109.751 46.1338 109.751 42.5567 111.621 39.8095 115.684 39.8095 116.467 39.8095 117.299 39.9248 118.038 40.1322L117.739 42.695C117.117 42.4632 116.4 42.2788 115.662 42.2788 113.792 42.2788 112.847 43.6633 112.847 45.8329 112.847 47.7937 113.609 49.1333 115.57 49.1333 116.353 49.1333 117.208 48.9707 117.833 48.6479L118.064 51.1646C117.274 51.4669 116.143 51.6961 114.92 51.6961ZM127.406 51.4886 127.406 44.1512C127.406 42.9499 127.084 42.2352 125.997 42.2352 124.496 42.2352 123.319 43.9437 123.319 45.9494L123.319 51.4886 120.365 51.4886 120.365 34.6404 123.319 34.6404 123.319 39.5572C123.319 40.2501 123.273 41.2196 123.112 41.8881L123.158 41.9125C123.827 40.6189 125.143 39.7647 126.921 39.7647 129.505 39.7647 130.337 41.4284 130.337 43.434L130.337 51.4886 127.406 51.4886ZM134.906 40.6202C133.035 40.6202 132.584 39.611 132.584 38.4353L132.584 34.6289 133.943 34.6289 133.943 38.3558C133.943 39.0436 134.161 39.4791 134.996 39.4791 135.763 39.4791 136.059 39.1563 136.059 38.2777L136.059 34.6276 137.4 34.6276 137.4 38.1983C137.397 39.8543 136.466 40.6202 134.906 40.6202ZM138.53 40.5075 138.53 39.4445 140.421 36.2836C140.515 36.1273 140.62 35.9788 140.732 35.8302 140.579 35.8392 140.378 35.8481 139.809 35.8481L138.591 35.8481 138.591 34.6289 142.397 34.6289 142.397 35.7342 140.402 38.9386C140.332 39.0526 140.265 39.1486 140.175 39.2703 140.289 39.2524 140.62 39.2524 141.316 39.2524L142.431 39.2524 142.431 40.5062 138.53 40.5075 138.53 40.5075ZM147.186 40.5075 147.186 38.06 145.034 38.06 145.034 40.5075 143.676 40.5075 143.676 34.6289 145.034 34.6289 145.034 36.8855 147.186 36.8855 147.186 34.6289 148.546 34.6289 148.546 40.5075 147.186 40.5075ZM0 30.8545C0 13.8141 13.8141 0 30.8545 0L30.8545 0C47.8961 0 61.7103 13.8141 61.7103 30.8545L61.7103 30.8545C61.7103 47.8961 47.8961 61.7103 30.8545 61.7103L30.8545 61.7103C13.8141 61.709 0 47.8949 0 30.8545L0 30.8545ZM9.57615 9.57615C4.13041 15.0232 0.762045 22.5437 0.762045 30.8545L0.762045 30.8545C0.762045 39.1653 4.12913 46.6858 9.57615 52.1329L9.57615 52.1329C15.0232 57.5786 22.5437 60.9457 30.8532 60.9457L30.8532 60.9457C39.164 60.9457 46.6846 57.5786 52.1316 52.1329L52.1316 52.1329C57.5773 46.6858 60.9457 39.1653 60.9457 30.8545L60.9457 30.8545C60.9457 22.545 57.5786 15.0245 52.1316 9.57743L52.1316 9.57743C46.6858 4.12913 39.1653 0.760764 30.8545 0.760764L30.8545 0.760764C22.5437 0.760764 15.0232 4.12913 9.57615 9.57615L9.57615 9.57615ZM31.322 50.2463 31.5704 50.2463 31.5704 49.8109 30.9787 49.8109 30.9787 50.7753 31.3233 50.7753 31.322 50.2463ZM30.8545 2.00821C14.9271 2.00821 2.01718 14.9194 2.01718 30.8455 2.01718 46.7742 14.9284 59.6854 30.8545 59.6854 46.7819 59.6854 59.6918 46.7742 59.6931 30.8455 59.6905 14.9194 46.7806 2.00821 30.8545 2.00821ZM27.6616 55.3155 26.354 55.3155 26.354 55.751 27.6616 55.751 27.6616 58.9913C21.1144 58.2574 15.2435 55.2912 10.8249 50.8739 10.1909 50.2399 9.5864 49.5739 9.01391 48.8823 9.13045 48.1792 9.73753 47.6438 10.4752 47.6438 11.2936 47.6438 11.9545 48.3073 11.9545 49.1244L11.9545 50.546 13.8346 50.546 13.8346 50.537 13.8346 50.537 13.8346 49.1231C13.8346 48.3034 14.4993 47.6426 15.3152 47.6426 16.1336 47.6426 16.797 48.306 16.797 49.1231L16.797 50.5447 18.6772 50.5447 18.6772 50.5358 18.6772 50.5358 18.6772 49.1218C18.6772 48.3021 19.3419 47.6413 20.1577 47.6413 20.9735 47.6413 21.6395 48.3047 21.6395 49.1218L21.6395 50.5434 23.5197 50.5434 23.5197 50.5345 23.5197 50.5345 23.5197 49.1205C23.5197 48.3009 24.1831 47.64 25.0015 47.64 25.8199 47.64 26.4807 48.3034 26.4807 49.1205L26.4807 50.5422 27.6616 50.5422 27.6616 55.3155ZM33.0356 59.0873C32.3158 59.1437 31.5884 59.1706 30.8545 59.1706 30.1232 59.1706 29.3945 59.1437 28.6772 59.0899L28.1419 55.7522 28.7579 55.7522C28.6042 55.386 28.3366 54.7456 28.2341 54.4856 28.0676 54.0681 28.1931 53.7914 28.471 53.6838 28.7413 53.5788 29.0461 53.7274 29.1409 54.0834L29.4111 55.0978 29.8069 55.0978 29.8069 55.7522 29.8069 55.7522 29.8069 55.8829 28.8732 55.8829 28.8732 56.3196 30.2385 56.3196 30.2397 55.7548 31.8958 55.7548 31.8945 55.1003 32.2915 55.1003 32.5643 54.086C32.6604 53.7299 32.9677 53.5788 33.2405 53.6864 33.5197 53.794 33.644 54.0706 33.4788 54.4881 33.4339 54.6021 33.3596 54.7891 33.2815 54.9953L32.9127 55.8854 31.9162 55.8854 31.9162 56.3222 33.2034 56.3222 33.4391 55.7574 33.5723 55.7574 33.0356 59.0873ZM29.958 49.5445 31.751 49.5445C31.8215 49.7097 31.9918 50.1259 32.0981 50.368 32.1711 50.5358 32.2646 50.7151 32.1506 50.9008 32.0149 51.1198 31.8368 51.0878 31.7126 51.0788 31.7049 51.0775 31.6972 51.0788 31.6896 51.0775 31.564 51.422 31.2387 51.6654 30.8532 51.6654 30.4677 51.6654 30.1424 51.422 30.0182 51.0775 30.0118 51.0788 30.0015 51.0775 29.9951 51.0788 29.8696 51.0903 29.6941 51.1198 29.5571 50.9008 29.4431 50.7151 29.5366 50.5358 29.6096 50.368 29.7185 50.1259 29.8888 49.7084 29.958 49.5445ZM29.6877 47.6823 30.2602 48.5032 30.8468 47.3902 31.4334 48.5032 32.0072 47.6823 31.7792 49.1052 29.9144 49.1052 29.6877 47.6823ZM30.3729 51.7115C30.5074 52.0867 30.866 52.357 31.2887 52.357 31.7446 52.357 32.1263 52.0406 32.2313 51.6141 32.5156 51.6295 32.7974 51.7102 33.0779 51.9484 33.3481 52.1751 33.4531 52.5632 33.4916 52.7579L28.22 52.7579C28.2571 52.5657 28.3634 52.1751 28.6337 51.9484 29.2113 51.4617 29.8004 51.6206 30.3729 51.7115ZM32.5489 53.192C32.3504 53.9426 31.6678 54.4971 30.8558 54.4971 30.0438 54.4971 29.3612 53.9426 29.1639 53.192L32.5489 53.192ZM50.8828 50.8752C46.4643 55.2925 40.5946 58.2574 34.0474 58.9913L34.0474 55.751 35.2449 55.751C37.4619 55.751 39.0654 55.564 39.0654 55.564 39.0654 55.564 37.4145 55.3155 35.2449 55.3155L34.0474 55.3155 34.0474 50.5499 35.478 50.5499 35.478 50.5409 35.478 50.5409 35.478 49.1269C35.478 48.3073 36.1427 47.6464 36.9598 47.6464 37.7769 47.6464 38.4417 48.3111 38.4417 49.1269L38.4417 50.5486 40.3205 50.5486 40.3205 50.5396 40.3205 50.5396 40.3205 49.1257C40.3205 48.306 40.9839 47.6451 41.8011 47.6451 42.6182 47.6451 43.2803 48.3098 43.2803 49.1257L43.2803 50.5473 45.1617 50.5473 45.1617 50.5383 45.1617 50.5383 45.1617 49.1244C45.1617 48.3047 45.8252 47.6438 46.6423 47.6438 47.462 47.6438 48.1228 48.3085 48.1228 49.1244L48.1228 50.546 50.003 50.546 50.003 50.537 50.003 50.537 50.003 49.1231C50.003 48.3034 50.6677 47.6426 51.4848 47.6426 52.1329 47.6426 52.6849 48.0601 52.8834 48.6415 52.2584 49.4228 51.5898 50.1682 50.8828 50.8752ZM53.2036 48.2496C52.8744 47.5567 52.1687 47.0765 51.3529 47.0765 50.2194 47.0765 49.3011 47.996 49.3011 49.1295L49.3011 49.7916 48.5596 49.7916 48.5596 49.1295C48.5596 47.996 47.6413 47.0765 46.5091 47.0765 45.3769 47.0765 44.4573 47.996 44.4573 49.1295L44.4573 49.7916 43.7145 49.7916 43.7145 49.1295C43.7145 47.996 42.7962 47.0765 41.664 47.0765 40.5318 47.0765 39.6135 47.996 39.6135 49.1295L39.6135 49.7916 38.8707 49.7916 38.8707 49.1295C38.8707 47.996 37.9511 47.0765 36.8189 47.0765 35.6868 47.0765 34.7685 47.996 34.7685 49.1295L34.7685 49.7916 34.0026 49.7916C33.7695 48.2573 32.449 47.079 30.8494 47.079 29.2497 47.079 27.9306 48.2573 27.6962 49.7916L26.9098 49.7916 26.9098 49.1295C26.9098 47.996 25.9902 47.0765 24.858 47.0765 23.7259 47.0765 22.8076 47.996 22.8076 49.1295L22.8076 49.7916 22.0647 49.7916 22.0647 49.1295C22.0647 47.996 21.1477 47.0765 20.013 47.0765 18.8808 47.0765 17.9625 47.996 17.9625 49.1295L17.9625 49.7916 17.2197 49.7916 17.2197 49.1295C17.2197 47.996 16.3014 47.0765 15.1692 47.0765 14.0357 47.0765 13.1174 47.996 13.1174 49.1295L13.1174 49.7916 12.3874 49.7916 12.3874 49.1295C12.3874 47.996 11.4691 47.0765 10.3369 47.0765 9.52492 47.0765 8.82435 47.5491 8.49264 48.233 7.99315 47.5913 7.52183 46.9266 7.07869 46.2427L54.6316 46.2427C54.1833 46.933 53.7082 47.6028 53.2036 48.2496ZM55.1068 45.4858 6.60226 45.4858C6.46137 45.2514 6.32433 45.017 6.18986 44.7775L55.5204 44.7775C55.3834 45.0157 55.2476 45.2527 55.1068 45.4858ZM25.9672 9.07922 25.9672 9.31872C25.9608 9.36611 25.948 9.43655 25.9236 9.50315 25.8826 9.61201 25.7815 9.7862 25.6457 9.99752 25.5945 10.0795 25.5048 10.2204 25.4049 10.4202 25.2756 10.2229 25.1667 10.0923 25.0899 10.0116 25.0053 9.92196 24.8926 9.80669 24.7978 9.69654 24.5968 9.45704 24.5852 9.31488 24.5852 9.31488L24.5852 9.31488C24.5852 9.31488 24.5788 9.45576 24.3765 9.69526 24.283 9.80413 24.1703 9.91939 24.0845 10.0103 24.0051 10.091 23.8962 10.2242 23.7643 10.4266 23.6618 10.2204 23.5709 10.0782 23.5184 9.98984 23.3839 9.77851 23.2814 9.60561 23.2405 9.49675 23.202 9.39301 23.1879 9.2739 23.1867 9.26109L23.1867 9.07922 25.9672 9.07922ZM23.1931 8.64377C23.2148 8.289 23.3109 7.61277 23.6567 7.15298 23.918 6.79693 24.178 6.58561 24.3701 6.46137 24.4572 6.40374 24.5276 6.36916 24.5776 6.34483 24.6288 6.37044 24.6992 6.40374 24.7876 6.46137 24.9759 6.58561 25.2384 6.79693 25.501 7.15298 25.8481 7.61277 25.9428 8.289 25.9646 8.64377L23.1931 8.64377ZM26.0683 10.2306C26.1478 10.3395 26.2284 10.4983 26.3168 10.6904 26.4398 10.9888 26.4718 11.2821 26.4756 11.4973L26.4756 14.6889 25.6534 14.6889C25.6534 13.9871 25.6534 12.4399 25.6534 11.4986 25.6559 11.2795 25.6957 10.9747 25.8122 10.6891 25.9147 10.4637 25.9941 10.3356 26.0683 10.2306ZM25.2077 11.519 25.2064 14.6902 23.959 14.6902C23.959 13.8077 23.9577 11.5178 23.9577 11.5165 23.9679 11.309 23.9846 11.0221 24.1344 10.7263 24.2907 10.4163 24.5878 10.2319 24.5878 10.2319L24.5891 10.2319C24.5891 10.2319 24.8696 10.4163 25.0271 10.7263 25.1846 11.0375 25.1987 11.3064 25.2077 11.519ZM23.3673 10.6853C23.4838 10.9722 23.503 11.2808 23.5069 11.4998L23.5107 14.6902 22.6987 14.6902 22.6987 11.4947C22.7025 11.2795 22.7256 10.9875 22.8473 10.6866 22.9369 10.4957 23.024 10.3369 23.097 10.2281 23.1892 10.3625 23.2776 10.4932 23.3673 10.6853ZM27.1058 15.2114 27.1058 16.245 22.0583 16.245 22.0583 15.2114 27.1058 15.2114ZM27.1058 16.6779 27.1058 20.7007 25.8839 20.7007 25.8839 18.891C25.8852 18.2904 25.6624 17.7819 25.2961 17.4335 25.1001 17.2453 24.8632 17.1031 24.6019 17.0135 24.5852 17.0083 24.5865 17.0071 24.5865 17.0071 24.5865 17.0071 24.584 17.0071 24.5673 17.0135 24.306 17.1031 24.0678 17.2453 23.8719 17.4335 23.5056 17.7806 23.284 18.2904 23.2853 18.891L23.2853 20.702 22.0583 20.702 22.0583 16.6792 27.1058 16.6779 27.1058 16.6779ZM25.4485 18.891 25.4485 20.702 23.7195 20.702 23.7195 18.891C23.7259 18.1917 24.0678 17.7063 24.584 17.4784 25.0975 17.7051 25.4421 18.1905 25.4485 18.891ZM27.1058 21.1362 27.1058 26.2528 25.9838 26.2528 25.9838 23.6977C25.9838 23.0983 25.7584 22.577 25.3819 22.2184 25.1808 22.0263 24.9413 21.8816 24.6775 21.7919 24.6634 21.7855 24.5827 21.7612 24.5827 21.7612 24.5827 21.7612 24.5033 21.7868 24.4969 21.7894 24.2318 21.879 23.9897 22.0263 23.7861 22.2184 23.4095 22.5757 23.1828 23.0996 23.1841 23.6964L23.1841 26.2515 22.057 26.2515 22.057 21.1349 27.1058 21.1362 27.1058 21.1362ZM25.5484 23.7015 25.5484 26.2528 23.6183 26.2528 23.6183 23.6977C23.6183 23.2059 23.7989 22.8088 24.0845 22.5335 24.2254 22.399 24.3931 22.2965 24.5827 22.2248L24.584 22.2248C24.7722 22.2991 24.9374 22.399 25.0796 22.5322 25.3691 22.8076 25.5458 23.2046 25.5471 23.6977L25.5484 23.7015ZM27.1058 26.6882 27.1058 32.7782 22.0583 32.7782 22.0583 26.6882 27.1058 26.6882ZM27.1058 33.2136 27.1058 37.1878 22.0583 37.1878 22.0583 33.2136 27.1058 33.2136ZM27.1058 37.622 27.1058 44.3421 22.0583 44.3421 22.0583 37.622 27.1058 37.622ZM31.5499 21.181 31.5499 22.9946 30.8558 22.3004 30.1629 22.9933 30.1629 21.181 31.5499 21.181ZM30.1821 20.6585 30.6893 18.4889 30.898 14.858 31.0236 18.4863 31.5307 20.6585 30.1821 20.6585ZM30.8558 23.0381 34.0717 26.2528 27.6411 26.2528 30.8558 23.0381ZM34.0717 26.6882 34.0717 29.1485 27.6206 29.1485 27.6206 26.6882 34.0717 26.6882ZM34.0717 29.9106 34.0717 32.7769 32.0546 32.7769 32.0546 32.0584C32.0546 31.3975 31.5179 30.8571 30.8532 30.8571 30.1911 30.8571 29.6532 31.3963 29.6532 32.0584L29.6532 32.7769 27.6181 32.7769 27.6181 29.9106 34.0717 29.9106ZM29.6557 33.2136 29.6557 35.7726 32.0546 35.7726 32.0546 33.2136 34.0717 33.2136 34.0717 37.1878 27.6206 37.1878 27.6206 33.2136 29.6557 33.2136ZM34.0717 37.622 34.0717 44.3421 27.6206 44.3421 27.6206 37.622 34.0717 37.622ZM38.5083 9.07922 38.5083 9.31872C38.5019 9.36739 38.4865 9.43783 38.4634 9.50443 38.4224 9.61201 38.3213 9.78492 38.1855 9.99624 38.1343 10.0782 38.0446 10.2191 37.9447 10.4189 37.8154 10.2229 37.7065 10.091 37.6297 10.0116 37.5464 9.92196 37.4324 9.80669 37.3377 9.69654 37.1353 9.45704 37.125 9.31488 37.125 9.31488L37.125 9.31488C37.125 9.31488 37.1186 9.45576 36.9163 9.69526 36.8228 9.80413 36.7101 9.91939 36.6243 10.0103 36.5449 10.091 36.436 10.2242 36.3041 10.4266 36.2016 10.2204 36.1107 10.0782 36.0582 9.98984 35.9237 9.77851 35.8212 9.60561 35.7803 9.49675 35.7406 9.39173 35.7277 9.27005 35.7265 9.25981L35.7265 9.07922 38.5083 9.07922ZM35.7342 8.64377C35.7559 8.289 35.852 7.61277 36.1978 7.15298 36.4591 6.79693 36.719 6.58561 36.9112 6.46137 36.9983 6.40374 37.0674 6.36916 37.1186 6.34483 37.1699 6.37044 37.2403 6.40374 37.3274 6.46137 37.5157 6.58561 37.7782 6.79693 38.0408 7.15298 38.3879 7.61277 38.4826 8.289 38.5044 8.64377L35.7342 8.64377ZM38.6094 10.2306C38.6876 10.3395 38.7695 10.4983 38.8566 10.6904 38.9796 10.9888 39.0116 11.2821 39.0154 11.4973L39.0154 14.6889 38.1932 14.6889C38.1932 13.9871 38.1932 12.4399 38.1932 11.4986 38.197 11.2795 38.2355 10.9747 38.3533 10.6891 38.4545 10.4637 38.5351 10.3356 38.6094 10.2306ZM37.7475 11.519 37.7462 14.6902 36.5013 14.6902C36.5013 13.8077 36.5 11.5178 36.5 11.5165 36.5103 11.309 36.5269 11.0221 36.6768 10.7263 36.833 10.4163 37.1302 10.2319 37.1302 10.2319L37.1315 10.2319C37.1315 10.2319 37.4119 10.4163 37.5695 10.7263 37.7244 11.0375 37.7385 11.3064 37.7475 11.519ZM35.9071 10.6853C36.0236 10.9722 36.0428 11.2808 36.0467 11.4998L36.0505 14.6902 35.2372 14.6902 35.2372 11.4947C35.2423 11.2795 35.2641 10.9875 35.3858 10.6866 35.4754 10.4957 35.5625 10.3369 35.6343 10.2281 35.7303 10.3625 35.8174 10.4932 35.9071 10.6853ZM39.6468 15.2114 39.6468 16.245 34.5994 16.245 34.5994 15.2114 39.6468 15.2114ZM39.6468 16.6779 39.6468 20.7007 38.425 20.7007 38.425 18.891C38.425 18.2904 38.2034 17.7819 37.8371 17.4335 37.6412 17.2453 37.403 17.1031 37.1417 17.0135 37.125 17.0083 37.1263 17.0071 37.1263 17.0071 37.1263 17.0071 37.1238 17.0071 37.1071 17.0135 36.8458 17.1031 36.6076 17.2453 36.4117 17.4335 36.0454 17.7806 35.8238 18.2904 35.8238 18.891L35.8238 20.702 34.5969 20.702 34.5969 16.6792 39.6468 16.6779 39.6468 16.6779ZM37.9896 18.891 37.9896 20.702 36.2593 20.702 36.2593 18.891C36.2657 18.1917 36.6076 17.7063 37.1238 17.4784 37.6386 17.7051 37.9831 18.1905 37.9896 18.891ZM39.6468 21.1362 39.6468 26.2528 38.5249 26.2528 38.5249 23.6977C38.5249 23.0983 38.2995 22.577 37.923 22.2184 37.7219 22.0263 37.4824 21.8816 37.2185 21.7919 37.2057 21.7855 37.1238 21.7612 37.1238 21.7612 37.1238 21.7612 37.0444 21.7868 37.0367 21.7894 36.7716 21.879 36.5295 22.0263 36.3259 22.2184 35.9493 22.5757 35.7239 23.0996 35.7239 23.6964L35.7239 26.2515 34.5969 26.2515 34.5969 21.1349 39.6468 21.1362 39.6468 21.1362ZM38.0895 23.7015 38.0895 26.2528 36.1606 26.2528 36.1606 23.6977C36.1606 23.2059 36.3412 22.8088 36.6268 22.5335 36.7677 22.399 36.9355 22.2965 37.1238 22.2248L37.125 22.2248C37.3133 22.2991 37.4798 22.399 37.622 22.5322 37.9101 22.8076 38.0882 23.2046 38.0895 23.6977L38.0895 23.7015ZM39.6468 26.6882 39.6468 32.7782 34.5994 32.7782 34.5994 26.6882 39.6468 26.6882ZM39.6468 33.2136 39.6468 37.1878 34.5994 37.1878 34.5994 33.2136 39.6468 33.2136ZM39.6468 37.622 39.6468 44.3421 34.5994 44.3421 34.5994 37.622 39.6468 37.622ZM40.423 44.3421 40.423 14.6889 39.7864 14.6889 39.7864 11.4204C39.78 11.0144 39.7211 10.7557 39.5418 10.3395 39.4957 10.2345 39.4304 10.1192 39.3561 10.0039L39.3561 8.82307C39.3561 8.82307 39.3548 7.89453 38.9719 7.19652 38.5556 6.43448 37.7475 6.01824 37.353 5.85302 37.2634 5.81075 37.2032 5.79154 37.1916 5.78898L37.1263 5.76465 37.0456 5.78898C37.0072 5.80051 36.3681 6.00287 35.7598 6.82895 35.209 7.58843 35.1911 8.56308 35.186 8.83076 35.186 8.8743 35.1873 8.89992 35.1873 8.90376L35.1873 9.99368C35.113 10.1013 35.0105 10.2639 34.8978 10.5034 34.7288 10.9184 34.7172 11.3026 34.7108 11.5331L34.7108 14.6902 34.0705 14.6902 34.0705 25.5151 32.3184 23.7643 32.3184 20.6738 31.7241 18.6784 30.8532 11.838 30.8532 11.838 30.2116 18.3915 29.6147 20.6738 29.6147 23.535 27.8806 25.2704 27.8806 14.6851 27.2441 14.6851 27.2441 11.4204C27.2377 11.0144 27.1788 10.7557 26.9982 10.3395 26.9533 10.2345 26.8867 10.1192 26.8137 10.0039L26.8137 8.82307C26.8137 8.82307 26.8125 7.89453 26.4295 7.19652 26.012 6.43448 25.2038 6.01824 24.8107 5.85302 24.721 5.81075 24.6608 5.79154 24.6493 5.78898L24.584 5.76465 24.5033 5.78898C24.4636 5.80051 23.8258 6.00287 23.2161 6.82895 22.6654 7.58843 22.6475 8.56308 22.6423 8.83076 22.6423 8.8743 22.6423 8.89992 22.6423 8.90376L22.6423 9.99368C22.5681 10.1013 22.4656 10.2639 22.3529 10.5034 22.1851 10.9184 22.1723 11.3026 22.1672 11.5331L22.1672 14.6902 21.5268 14.6902 21.5268 44.3408 5.95036 44.3408C3.77052 40.3282 2.5282 35.7329 2.5282 30.8443 2.5282 23.024 5.69805 15.9428 10.8236 10.8146 15.9504 5.68908 23.0304 2.51667 30.8532 2.51667 38.676 2.51667 45.7573 5.6878 50.8841 10.8146 56.0097 15.9415 59.1808 23.0214 59.1808 30.8443 59.1808 35.7329 57.9385 40.3282 55.7586 44.3408L40.423 44.3421 40.423 44.3421Z" transform="matrix(1.02797 0 0 1 998.2 21.6417)"/></g></svg>